<svg fill-rule="evenodd" height="360" viewBox="0 0 169.33334 101.6" width="600" xmlns="http://www.w3.org/2000/svg"><path d="m.000224.000001h169.33289v101.6h-169.33289z" fill="#fff"/><path d="m.000224.000001h169.33289v33.866669h-169.33289z" fill="#00247d"/><path d="m169.33334 42.0773v10.923468c-.61615-.244743-1.21119-.499421-1.80645-.75455-5.17312-2.216799-9.71237-2.216799-14.88549 0-7.81821 3.349752-15.00074 3.351784-22.82313 0-5.17312-2.216799-9.71237-2.216799-14.88549 0-7.69878 3.298614-15.124252 3.298839-22.823028 0-5.17312-2.216799-9.712596-2.216799-14.885716 0-7.69855 3.298727-15.124248 3.298839-22.822799 0-5.273703-2.259471-9.616414-2.258003-14.885715 0-7.822502 3.351784-15.005038 3.349752-22.823138 0-5.173119-2.216799-9.7123695-2.216799-14.8854892 0-.5951486.255016-1.19041014.509694-1.80644317.754437v-10.923355c6.93350427-2.42745 13.68503237-2.146808 20.66064437.842264 5.273816 2.259584 9.616188 2.25789 14.885715 0 7.822276-3.351897 15.005038-3.349752 22.823138 0 5.173232 2.216799 9.712144 2.216686 14.885376 0 7.698663-3.29884 15.124475-3.29884 22.823138 0 5.173567 2.216799 9.712027 2.216573 14.885607 0 7.69843-3.29884 15.12447-3.29884 22.82291 0 5.26941 2.25789 9.6119 2.259584 14.88571 0 6.97561-2.989072 13.72703-3.26994 20.66065-.842264zm0 20.615995v10.923467c-.61615-.244743-1.21119-.49942-1.80645-.754549-5.17312-2.216799-9.71237-2.216799-14.88549 0-7.81821 3.349752-15.00074 3.351784-22.82313 0-5.17312-2.216799-9.71237-2.216799-14.88549 0-7.69878 3.298613-15.124252 3.298839-22.823028 0-5.17312-2.216799-9.712596-2.216799-14.885716 0-7.69855 3.298726-15.124248 3.298839-22.822799 0-5.273703-2.259471-9.616414-2.258004-14.885715 0-7.822502 3.351784-15.005038 3.349752-22.823138 0-5.173119-2.216799-9.7123695-2.216799-14.8854892 0-.5951486.255016-1.19041014.509693-1.80644317.754436v-10.923354c6.93350427-2.42745 13.68503237-2.146808 20.66064437.842264 5.273816 2.259584 9.616188 2.257891 14.885715 0 7.822276-3.351897 15.005038-3.349752 22.823138 0 5.173232 2.216799 9.712144 2.216686 14.885376 0 7.698663-3.298839 15.124475-3.298839 22.823138 0 5.173567 2.216799 9.712027 2.216573 14.885607 0 7.69843-3.298839 15.12447-3.298839 22.82291 0 5.26941 2.257891 9.6119 2.259584 14.88571 0 6.97561-2.989072 13.72703-3.26994 20.66065-.842264zm0 20.654828v10.923468c-.61615-.244743-1.21119-.499421-1.80645-.75455-5.17312-2.216799-9.71237-2.216799-14.88549 0-7.81821 3.349752-15.00074 3.351784-22.82313 0-5.17312-2.216799-9.71237-2.216799-14.88549 0-7.69878 3.298614-15.124252 3.29884-22.823028 0-5.17312-2.216799-9.712596-2.216799-14.885716 0-7.69855 3.298727-15.124248 3.29884-22.822799 0-5.273703-2.259471-9.616414-2.258003-14.885715 0-7.822502 3.351784-15.005038 3.349752-22.823138 0-5.173119-2.216799-9.7123695-2.216799-14.8854892 0-.5951486.255016-1.19041014.509694-1.80644317.754437v-10.923355c6.93350427-2.42745 13.68503237-2.146808 20.66064437.842264 5.273816 2.259584 9.616188 2.257891 14.885715 0 7.822276-3.351897 15.005038-3.349752 22.823138 0 5.173232 2.216799 9.712144 2.216686 14.885376 0 7.698663-3.298839 15.124475-3.298839 22.823138 0 5.173567 2.216799 9.712027 2.216573 14.885607 0 7.69843-3.298839 15.12447-3.298839 22.82291 0 5.26941 2.257891 9.6119 2.259584 14.88571 0 6.97561-2.989072 13.72703-3.269939 20.66065-.842264z" fill="#00247d"/><path d="m75.3668 87.6663v-4.0782l129.6092-25.9218h20.391v4.0782l-129.6095 25.9218z" fill="#fff" fill-rule="nonzero" transform="matrix(1.1288859 0 0 1.1288889 -85.080292 -65.098845)"/><path d="m143.867 87.6663h13v-30h-13z" fill="#fff" transform="matrix(1.1288859 0 0 1.1288889 -85.080292 -65.098845)"/><path d="m204.976 87.6663h20.391v-4.0782l-129.6095-25.9218h-20.3907v4.0782z" fill="#fff" fill-rule="nonzero" transform="matrix(1.1288859 0 0 1.1288889 -85.080292 -65.098845)"/><path d="m87.018363 13.260943 66.304777-13.26094517h16.00952l-82.314297 16.46292517zm82.314297 17.403741v3.201416l-84.664976-16.932769h16.008276zm-153.323026 3.201981h-16.00963393l87.01858893-17.403516v3.201755zm-16.00963393-30.6646867v-3.20198047l84.66644293 16.93333317h-16.009747z" fill="#cf142b" fill-rule="nonzero"/><path d="m75.3668 67.6665v10h150.0002v-10z" fill="#fff" transform="matrix(1.1288859 0 0 1.1288889 -85.080292 -65.098845)"/><path d="m146.367 87.6663h8v-30h-8z" fill="#cf142b" transform="matrix(1.1288859 0 0 1.1288889 -85.080292 -65.098845)"/><path d="m225.367 75.9165v-6.5h-150.0002v6.5z" fill="#cf142b" transform="matrix(1.1288859 0 0 1.1288889 -85.080292 -65.098845)"/><g stroke="#000" stroke-width=".141111"><g transform="translate(-.687491)"><g stroke-width=".141111"><path d="m90.546132 13.768494 2.424847-1.617697-1.663978 6.269623h-11.90636l-1.662849-6.269623 2.423718 1.617697.504612-4.5800147 2.810926 3.5436947 1.877338-4.8705907 1.876208 4.8705907 2.810926-3.5436947z" fill="#fc0"/><path d="m85.353257 16.694346c2.289267 0 4.376126.653175 5.953518 1.726071-1.577392 1.073009-3.664251 1.726748-5.953292 1.726748-2.28893 0-4.376014-.653627-5.95318-1.726748 1.577279-1.072783 3.664025-1.726071 5.952954-1.726071z" fill="#fc0" stroke-linejoin="round"/><path d="m79.258402 17.885662c1.82586-1.094571 3.90809-1.714895 6.11811-1.714895 2.194328 0 4.26177.611519 6.07826 1.691414m-12.301695-.373549c1.85363-1.067139 3.961035-1.670982 6.196229-1.670982 2.238355 0 4.348017.605424 6.203453 1.675159m-12.93421-2.019131c1.973631-1.350264 4.287509-2.127617 6.761914-2.127617 2.455553 0 4.752384.765613 6.716194 2.096685m-13.587271-.380435c2.003998-1.31414 4.343953-2.069366 6.843871-2.069366 2.500256 0 4.840211.755339 6.844322 2.069592" fill="none" stroke-linejoin="round"/><rect fill="none" height="1.088288" rx=".475261" ry=".475262" width="2.142061" x="84.283066" y="14.106595"/></g><ellipse fill="none" rx=".9488" ry=".5172" stroke-width=".127441" transform="matrix(1.0353227 -.32805286 .34099015 1.0761574 81.871773 15.146865)"/><rect fill="#fc0" height="1.088287" rx=".36801" ry=".544143" stroke-width=".141111" transform="matrix(.90775553 -.41949957 .41949776 .90775637 0 0)" width="1.4487" x="64.236877" y="47.500896"/><rect fill="#fc0" height="1.088287" rx=".36801" ry=".544143" stroke-width=".141111" transform="matrix(-.90775553 -.41949957 -.41949776 .90775637 0 0)" width="1.4487" x="-90.725098" y="-24.111366"/><ellipse fill="none" rx=".9488" ry=".5172" stroke-width=".127441" transform="matrix(-1.0353227 -.32805286 -.34099015 1.0761574 88.83587 15.146865)"/></g><g fill="#fc0" transform="translate(-1.435358 -13.052655)"><path d="m93.661264 92.834341 5.933424.833118 3.054762-43.259359z"/><path d="m104.06959 94.61911 5.75958 1.65156 9.04576-42.413824z"/><path d="m114.12796 97.835305 5.47397 2.437265 14.86066-40.742282z"/><path d="m123.64109 102.41971 5.08111 3.17556 20.38655-38.277137z"/><path d="m132.42382 108.28427 4.59005 3.85176 25.51395-35.06771z"/><path d="m89.098307 92.514866h-5.992127l2.996064-43.263875z"/><path d="m78.542095 92.834341-5.933425.833118-3.054765-43.259359z"/><path d="m68.133767 94.61911-5.759576 1.65156-9.044634-42.413824z"/><path d="m58.075393 97.835305-5.473967 2.437265-14.859525-40.742282z"/><path d="m48.562272 102.41971-5.081116 3.17556-20.385873-38.277137z"/><path d="m39.77954 108.28427-4.59005 3.85176-25.5140591-35.06771z"/><path d="m31.898805 115.31373-4.009319 4.45308-30.14624-31.175559z"/><path d="m25.073079 123.37156-3.350552 4.96773-34.191658-26.67661z"/><path d="m140.30456 115.3136 4.00932 4.45309 30.14613-31.175581z"/><path d="m147.13031 123.37131 3.35055 4.96774 34.19155-26.67665z"/></g><g fill="#fc0" fill-rule="nonzero" transform="translate(-1.435358 -13.052655)"><path d="m73.738685 93.521832-5.833292 1.191652c-.794397-2.466841-1.108679-3.370514-1.532575-7.694373-.423897-4.323859.06841-8.563503-.900964-13.497863-.969262-4.934247-3.500563-10.0227-4.217969-13.760103-.717182-3.737403-.548865-5.375868.238082-7.864948-.270594 2.694538-.294075 3.946698.98134 7.510591 1.275415 3.564005 4.475355 8.894379 5.911637 13.550582 1.436168 4.655977 2.015851 8.952855 2.861726 12.743993.845874 3.791137 1.231388 5.121755 2.492015 7.820469z"/><path d="m63.472597 95.969257-5.610563 1.991919c-1.130015-2.332278-1.567007-3.183345-2.588535-7.406169-1.021529-4.222823-1.124145-8.489786-2.770738-13.241154s-4.861434-9.437938-6.09192-13.039196c-1.230373-3.601146-1.291671-5.247062-.858969-7.821486.107131 2.705939.258063 3.949181 2.017093 7.300956 1.759143 3.351775 5.669604 8.184875 7.739981 12.595883 2.070151 4.410896 3.242273 8.585178 4.607547 12.221771 1.365162 3.63648 1.932201 4.90038 3.556104 7.397476z"/><path d="m53.647903 99.821016-5.278783 2.753354c-1.443507-2.15234-1.994742-2.934315-3.594035-6.973807-1.599292-4.039492-2.294799-8.250688-4.586663-12.726608-2.291751-4.476033-6.127593-8.669618-7.847337-12.064517-1.719519-3.394898-2.009304-5.016317-1.939088-7.62585.482712 2.664623.805235 3.874788 3.013561 6.949196 2.20844 3.074295 6.75356 7.316197 9.417731 11.396103 2.663832 4.079794 4.405477 8.050424 6.26351 11.461579 1.858147 3.411154 2.595535 4.583841 4.551104 6.83055z"/><path d="m44.454256 105.0026-4.844275 3.46128c-1.729002-1.93051-2.383643-2.62816-4.529655-6.40575-2.145899-3.777705-3.420637-7.851064-6.313181-11.964498-2.892319-4.113435-7.274541-7.732417-9.449904-10.854915-2.175363-3.122499-2.68799-4.687812-2.981614-7.281766.84881 2.571602 1.336601 3.724985 3.951327 6.462194 2.614838 2.736984 7.706114 6.305054 10.912037 9.974497 3.20581 3.669331 5.483111 7.358869 7.797779 10.478319 2.314781 3.119339 3.208181 4.178009 5.457486 6.130639z"/><path d="m36.071149 111.41355-4.315392 4.1018c-1.980969-1.67109-2.726372-2.27086-5.377109-5.71306-2.65085-3.4422-4.480097-7.29859-7.916877-10.969388-3.43678-3.670911-8.279926-6.644735-10.8687959-9.434099-2.5887612-2.789365-3.3141832-4.268092-3.9658891-6.796007 1.1984253 2.42846 1.8420032 3.502821 4.8122149 5.849323 2.9703201 2.346615 8.5086341 5.171313 12.1939951 8.358835 3.685361 3.187523 6.453954 6.524166 9.180213 9.291066 2.726372 2.76679 3.7584 3.6909 6.25764 5.31153z"/><path d="m84.245226 92.528413-5.942342.368242c-.443314-2.553427-.62879-3.491982-.446813-7.832774.181976-4.340792 1.259498-8.470709.986307-13.49188-.273077-5.021172-2.071618-10.412392-2.261835-14.213238-.190105-3.800846.204667-5.399913 1.330279-7.755333-.642901 2.630642-.840456 3.867337-.07349 7.574147.767078 3.706809 3.193957 9.4306 3.96826 14.241347.77419 4.810634.750258 9.146346 1.06025 13.018312s.506644 5.243224 1.379385 8.091177z"/><path d="m141.05754 116.16954-4.24981-4.16954c1.60088-2.03809 2.17424-2.80393 5.52184-5.5732 3.34759-2.76938 7.13783-4.73206 10.68648-8.294936 3.54866-3.562651 6.35168-8.50672 9.04904-11.191323 2.69736-2.684491 4.14978-3.461165 6.65343-4.200698-2.38511 1.282415-3.43633 1.963133-5.67785 5.013383-2.2414 3.050475-4.87114 8.683954-7.92816 12.478364-3.05691 3.7943-6.29501 6.6777-8.96505 9.4989-2.66993 2.8212-3.55746 3.88483-5.08992 6.43905z"/><path d="m133.28855 109.02708-4.78874-3.53748c1.30172-2.24106 1.76287-3.07926 4.69244-6.287552 2.92969-3.208181 6.4097-5.679312 9.428-9.701307 3.01842-4.021995 5.10607-9.308003 7.40346-12.341884 2.29751-3.033881 3.62779-4.005061 6.0041-5.085857-2.18349 1.601889-3.12973 2.422364-4.92488 5.754948-1.79504 3.332584-3.61514 9.277297-6.11427 13.460158-2.49924 4.182861-5.30452 7.488803-7.55586 10.654204-2.25134 3.16528-2.98218 4.34214-4.14425 7.08477z"/><path d="m124.60064 103.03495-5.23453-2.83666c.97716-2.400351 1.3173-3.294541 3.77183-6.879318 2.45465-3.584777 5.55694-6.516156 7.98608-10.919149 2.42925-4.402881 3.76088-9.927987 5.61372-13.252105 1.85296-3.324004 3.03513-4.470952 5.23781-5.8719-1.9392 1.890207-2.76205 2.834294-4.07596 6.384302-1.31379 3.550007-2.28881 9.69013-4.1815 14.180161-1.89269 4.489918-4.21052 8.154169-5.99947 11.602012-1.78894 3.447843-2.34887 4.715017-3.11798 7.592657z"/><path d="m115.16428 98.310566-5.57839-2.080649c.63353-2.5129.84588-3.445811 2.77774-7.337307 1.93175-3.891495 4.59592-7.226111 6.38859-11.924309 1.7929-4.698084 2.34266-10.354706 3.71483-13.904375 1.37227-3.549555 2.3833-4.849806 4.36957-6.543812-1.6572 2.141722-2.34074 3.191247-3.14778 6.889477-.80693 3.698343-.9179 9.914441-2.16724 14.624153-1.24945 4.709599-3.03478 8.660812-4.32645 12.324047-1.29167 3.663348-1.66985 4.995998-2.03087 7.952775z"/><path d="m105.16122 94.945358-5.813645-1.283995c.277706-2.576682.358195-3.530026 1.729565-7.652492 1.37137-4.122465 3.54549-7.795409 4.66693-12.69737 1.12155-4.901961.87872-10.580031 1.74356-14.286051.86484-3.706019 1.68509-5.134399 3.41635-7.088275-1.34315 2.35147-1.87384 3.485887-2.15832 7.26043-.28436 3.774656.47075 9.945711-.11097 14.783551-.58182 4.837615-1.79989 8.998801-2.56912 12.806195-.76933 3.807393-.95819 5.17978-.90435 8.158007z"/><path d="m94.787892 93.005932-5.935795-.462392c-.08365-2.590229-.136708-3.545492.647642-7.818664.78435-4.273284 2.426201-8.212983 2.854388-13.223318.428412-5.010334-.602261-10.599335-.261676-14.389682.340698-3.790348.954247-5.318859 2.396625-7.494787-1.002677 2.51561-1.370468 3.712793-1.126854 7.490271.243726 3.777478 1.850357 9.783264 1.947667 14.654971.09708 4.871594-.530012 9.161812-.761886 13.039197-.231873 3.877384-.228034 5.262753.239889 8.204404z"/><path d="m28.662019 118.92866-3.702534 4.66247c-2.194262-1.37913-3.015882-1.86932-6.119884-4.90911-3.104114-3.03978-5.452264-6.60406-9.3664743-9.76082-3.9142256-3.15688-9.12411473-5.42773-12.0759943-7.82965-2.9517717-2.401928-3.8759337-3.765305-4.8731147-6.177919 1.524739 2.238038 2.311575 3.212375 5.5794511 5.122669 3.2679989 1.91039 9.1455363 3.93681 13.2386492 6.58041 4.093113 2.6436 7.299133 5.56246 10.383938 7.92301 3.084902 2.36042 4.235498 3.13191 6.935963 4.38894z"/><path d="m147.75684 124.32371-3.62816-4.72042c1.86895-1.79545 2.54331-2.47404 6.24374-4.75047 3.70043-2.27653 7.72694-3.69261 11.73691-6.72694 4.00995-3.0341 7.47377-7.53995 10.51851-9.823024 3.04472-2.282966 4.59109-2.849944 7.1733-3.233839-2.54037.937992-3.6761 1.465784-6.32032 4.174389-2.64413 2.708844-6.03231 7.921514-9.58766 11.253544-3.55522 3.33193-7.1631 5.73661-10.19979 8.15876-3.03658 2.42216-4.0635 3.35192-5.93653 5.668z"/></g><path d="m163.68879 155.09644h-158.0440215c0-43.63505 35.3868475-79.022015 79.0220695-79.022015 43.635112 0 79.021952 35.386965 79.021952 79.022015z" fill="#fc0"/></g></svg>