<svg height="500" width="1000" xmlns="http://www.w3.org/2000/svg"><path d="m0 0h1000v500h-1000z" fill="#fff"/><path d="m30 280v170l310-170z" fill="#002373"/><path d="m400 310v160h-290z" fill="#002373"/><path d="m460 300v170h510z" fill="#cd0019"/><path d="m480 330v120h370z" fill="#fff"/><path d="m460 220h490l25 30-25 30h-490l30-30z" fill="#cd0019"/><path d="m490 230h450l20 20-20 20h-450l20-20z" fill="#f8d80e"/><path d="m30 220v-170l310 170z" fill="#002373"/><path d="m400 190v-160h-290z" fill="#002373"/><path d="m460 200v-170h510z" fill="#cd0019"/><path d="m480 170v-120h370z" fill="#fff"/></svg>