<svg height="600" width="1200" xmlns="http://www.w3.org/2000/svg" xmlns:xlink="http://www.w3.org/1999/xlink"><g transform="translate(-422.76502 108.03614)"><path d="m422.76502-108.03614h1199.99998v600h-1199.99998z" fill="#fff"/><path id="a" d="m422.76502-108.03614h300v600h-300z" fill="#00549f"/><path d="m1022.5431 387.38402c16.215-.88742 139.9718-62.39215 149.8268-209.51776v-181.3225649h-299.65355v181.3225649c9.84728 147.12561 133.60405 208.63034 149.82675 209.51776" fill="#fff"/><path d="m1022.5431 387.38402c10.221-.56048 77.6808-35.52811 108.982-88.47776l-207.99983-200.799193-6.78023-6.647897-19.25867 22.38021-24.17842-22.38021-.5916-.179042v86.586132c9.84728 147.12561 133.60405 208.63034 149.82675 209.51776" fill="#008165"/><path d="m1022.5431 387.38402c10.221-.56048 77.6808-35.52811 108.982-88.47776l-207.99983-200.799193-6.78023-6.647897-19.25867 22.38021-24.17842-22.38021-.5916-.179042v86.586132c9.84728 147.12561 133.60405 208.63034 149.82675 209.51776" fill="none" stroke="#292526" stroke-width="3.534128"/><path d="m872.69299 31.698151v23.547881c6.04071-2.459878 12.81316-1.720358 17.92753-.73952 16.0904 3.121554 28.70117 15.747888 45.679 13.778429 14.191-1.642513 24.48979-12.174838 38.5796-14.626931 15.02394-2.607782 27.61918 5.347899 40.40118 11.847892 6.3988 3.246105 13.7395 4.180235 20.3018.980837 14.9149-7.28622 30.6628-16.144894 47.446-10.952683 14.7359 4.561672 27.5724 17.732916 43.8341 13.272442 10.112-2.763471 17.4138-10.9449 28.0006-13.459268 4.4371-1.050898 12.8598-1.876046 17.3904-1.377843h.1167v-23.625725c-4.5305-.498203-12.961.326945-17.3981 1.377843-10.5791 2.514368-17.8887 10.695797-27.985 13.459268-16.2851 4.45269-29.106-8.71077-43.8419-13.288011-16.791-5.184426-32.5311 3.682032-47.4539 10.968252-6.5544 3.199398-13.9107 2.273052-20.294-.980837-12.7898-6.507778-25.37719-14.455674-40.40111-11.847892-14.08982 2.459877-24.39639 12.976633-38.58739 14.626931-16.97005 1.969459-29.59639-10.656875-45.679-13.770645-5.11437-.988622-11.9958-1.712573-18.03651.747305v.06227" fill="#0056a3"/><path d="m872.69299 31.698151v23.547881c6.04071-2.459878 12.81316-1.720358 17.92753-.73952 16.0904 3.121554 28.70117 15.747888 45.679 13.778429 14.191-1.642513 24.48979-12.174838 38.5796-14.626931 15.02394-2.607782 27.61918 5.347899 40.40118 11.847892 6.3988 3.246105 13.7395 4.180235 20.3018.980837 14.9149-7.28622 30.6628-16.144894 47.446-10.952683 14.7359 4.561672 27.5724 17.732916 43.8341 13.272442 10.112-2.763471 17.4138-10.9449 28.0006-13.459268 4.4371-1.050898 12.8598-1.876046 17.3904-1.377843h.1167v-23.625725c-4.5305-.498203-12.961.326945-17.3981 1.377843-10.5791 2.514368-17.8887 10.695797-27.985 13.459268-16.2851 4.45269-29.106-8.71077-43.8419-13.288011-16.791-5.184426-32.5311 3.682032-47.4539 10.968252-6.5544 3.199398-13.9107 2.273052-20.294-.980837-12.7898-6.507778-25.37719-14.455674-40.40111-11.847892-14.08982 2.459877-24.39639 12.976633-38.58739 14.626931-16.97005 1.969459-29.59639-10.656875-45.679-13.770645-5.11437-.988622-11.9958-1.712573-18.03651.747305v.06227z" fill="none" stroke="#292526" stroke-width="2.654488"/><path d="m895.68817 185.02793h25.07363v45.66343h-25.07363z" fill="#ffc32a"/><path d="m895.68817 230.69136h25.07363v-45.66343h-25.07363z" fill="none" stroke="#292526" stroke-width="2.101794"/><path d="m951.65818 185.02793h25.06584v45.66343h-25.06584z" fill="#ffc32a"/><path d="m951.65818 230.69136h25.06584v-45.66343h-25.06584z" fill="none" stroke="#292526" stroke-width="2.101794"/><path d="m922.1163 253.07936h25.05805v45.66343h-25.05805z" fill="#ffc32a"/><path d="m922.1163 298.73501h25.05805v-45.66343h-25.05805z" fill="none" stroke="#292526" stroke-width="2.101794"/><path d="m977.16773 252.62787h25.07367v45.66342h-25.07367z" fill="#ffc32a"/><path d="m977.16773 298.29129h25.07367v-45.66342h-25.07367z" fill="none" stroke="#292526" stroke-width="2.101794"/><path d="m1035.3797 253.07936h25.0658v45.66343h-25.0658z" fill="#ffc32a"/><path d="m1035.3797 298.73501h25.0658v-45.66343h-25.0658z" fill="none" stroke="#292526" stroke-width="2.101794"/><path d="m975.3851 362.98764v-41.42092h-25.07363v20.59758z" fill="#ffc32a"/><path d="m975.3851 362.98764v-41.42092h-25.07363v20.59758z" fill="none" stroke="#292526" stroke-width="2.101794"/><path d="m1008.5156 321.56672h25.0659v45.66343h-25.0659z" fill="#ffc32a"/><path d="m1008.5156 367.23015h25.0659v-45.66343h-25.0659z" fill="none" stroke="#292526" stroke-width="2.101794"/><path d="m1088.197 347.97927v-26.41255h-25.0659v45.66343z" fill="#ffc32a"/><path d="m1088.197 347.97927v-26.41255h-25.0659v45.66343z" fill="none" stroke="#292526" stroke-width="2.101794"/><path d="m1116.8514 292.35956v6.37545h-25.0658v-19.25088c17.3437.11676 25.0658 12.87543 25.0658 12.87543" fill="#ffc32a"/><path d="m1116.8514 292.35956v6.37545h-25.0658v-19.25088c17.3437.11676 25.0658 12.87543 25.0658 12.87543z" fill="none" stroke="#292526" stroke-width="2.101794"/><path d="m1034.0252 216.36802v14.32334h-25.0737v-21.82752c9.4114 3.80658 15.4521 5.597 25.0737 7.50418" fill="#ffc32a"/><path d="m1034.0252 216.36802v14.32334h-25.0737v-21.82752c9.4114 3.80658 15.4521 5.597 25.0737 7.50418z" fill="none" stroke="#292526" stroke-width="2.101794"/><path d="m923.00371 116.96872v45.2275h25.29159v-14.44011s-18.3401.84851-24.27961-30.78739z" fill="#ffc32a"/><path d="m923.00371 116.96872v45.2275h25.29159v-14.44011s-18.3401.84851-24.27961-30.78739z" fill="none" stroke="#292526" stroke-width="2.101794"/><path d="m872.86424 116.96872h19.69459v45.67121h-19.69459z" fill="#ffc32a"/><path d="m872.86424 162.63993h19.69459v-45.67121h-19.69459z" fill="none" stroke="#292526" stroke-width="2.101794"/><path d="m921.67259 96.378925 17.89639 17.460455 19.25086-22.38021 24.17842 22.38021 18.79944-22.38021 21.9365 22.38021 19.6946-22.38021 22.388 22.83171 17.9041-22.83171 23.2832 22.38021 19.2509-22.38021 21.9365 22.38021 24.6222-29.098168h-.4438v93.125048c-3.6431 54.36642-22.8317 97.04841-46.4185 129.29149l.086.31138c-2.1641-6.3988-11.5132-19.74908-17.3982-23.12752-10.5946-6.07964-23.1743-3.3473-33.6054-9.6449-15.7323-9.46586-13.6149-28.64668-20.4185-43.22691-2.8803-6.18861-8.2437-11.03831-14.8371-13.45148-15.491-5.66706-34.2048-4.66287-44.32456-20.14609-6.88921-10.54789-5.02874-22.97183-12.21376-33.63649-3.89221-5.76826-8.81197-9.47364-15.13292-11.41975-11.27963-3.49521-23.0886-3.81437-32.79577-11.38083-9.62154-7.4964-12.30718-26.70057-13.63831-45.056235" fill="#ee3629"/><path d="m749.5938 192.78125v-88.1875h-299.65625v94.71875m299.65625-6.53125-1.68755 1.96875-22.5 27.125-21.90625-22.375-19.28125 22.375-23.28125-22.375-17.875 22.8125-22.40625-22.8125-19.6875 22.375-21.9375-22.375-18.8125 22.375-24.15625-22.375-19.25 22.375-17.90625-17.46875c1.33113 18.35567 4.00346 37.5661 13.625 45.0625 9.70717 7.56646 21.53287 7.87979 32.8125 11.375 6.32095 1.94611 11.23279 5.66924 15.125 11.4375 7.18502 10.66466 5.32954 23.07711 12.21875 33.625 10.11976 15.48322 28.8215 14.48919 44.3125 20.15625 6.5934 2.41317 11.96345 7.24889 14.84375 13.4375 6.8036 14.58023 4.67395 33.75289 20.40625 43.21875 10.4311 6.2976 23.0304 3.57661 33.625 9.65625 5.885 3.37844 15.24215 16.7262 17.40625 23.125l-.0937-.3125c23.5868-32.24308 42.76315-74.91483 46.40625-129.28125z" fill="none" stroke="#292526" stroke-width="3.534128" transform="translate(422.76502 -108.03614)"/><path d="m1134.8739 122.88356c0 11.14433 9.0227 24.41008-.5302 33.96328 3.1822 6.90128 2.6519 16.44794.5302 23.3493-3.7127 12.7354-17.8322 20.83976-27.3077 28.35547-10.0836 1.06078-12.1921 9.84425-22.9807 11.25425-7.3605-2.00504-13.9191-9.88949-21.8811-13.60211-6.3709-2.65831-5.8406-10.08356-9.5531-14.86335-8.4925-4.77333-14.3266-13.7961-11.6747-24.94044 7.962-9.02276-6.9013-18.03907-.5301-28.65952 4.7733-5.30368 2.1214-14.32645 9.5531-18.03908 11.1443-3.18873 9.0228 13.7961 19.1064 10.61391 12.1985-7.96206 31.3049-5.84058 42.9795.53012 5.8406-6.37093 14.8569-20.69746 22.2886-7.96206" fill="#292526"/><path d="m1132.6488 125.5484c0 6.90128 6.7267 22.8901-.6982 27.66989-1.5912 1.59114-.1744 1.79812-.7053 4.44996 5.6271 6.80429 2.8136 17.58634-.4725 25.56133-6.3645 7.96206-13.5957 14.76635-23.207 21.57063-1.5912 2.65185-5.7889 3.7514-8.4407 3.7514-9.8508-2.81353 9.0422-10.71737 5.8599-15.49716-4.7733-1.06078-5.8341 7.43164-11.1442 7.43164-1.0608 3.18227-.1098 11.11195-3.1564 12.75485l-1.8757 1.87566 1.3194-11.44824c-5.6142-2.23795-.207-2.529-9.0227-1.06078-1.6752 1.25477-1.6752 1.48768-.9768 5.4719l.9379 7.97499-3.0463-3.7514c0-5.31022-2.2186-13.40812-6.468-14.99918-4.9351 0-1.7399 6.08633 2.2508 10.07055-2.8136 4.92863-19.2292-9.13922-17.3535-11.95274-3.7514-13.36928-14.3007-6.565-14.5335-22.04277-1.5911-6.89489 2.2185-9.63727 3.2793-15.47138-5.6272-10.31639-6.0928-17.12067-.7053-24.62353 2.115-13.82849 5.7888-12.19205 8.4407-12.19205 4.2495 4.7798 5.6595 10.83382 11.4936 12.43142 13.2657-9.5532 34.0343-8.13667 47.8305-.70527 8.4924-1.06071 10.5492-24.38416 20.3934-7.26995" fill="#fff"/><path d="m1085.9955 164.589c-1.9921.93786-4.2236-4.80569-8.9128-7.85856-4.7734-2.12149-11.804-5.62712-17.1142-5.62712l3.3374.0323c8.4925.53037 17.5153 2.65186 22.2886 9.55317 0 0 2.3931 2.96232.401 3.90017" fill="#999"/><path d="m1085.5233 170.11259c0 1.59114 0 3.71909-2.1215 3.71909.016-5.60775-6.4743-7.5934-9.1327-8.66064 5.1614 1.17724 9.6631 1.22892 11.2542 4.94155" fill="#292526"/><path d="m1089.5076 164.589c1.9986.93786 4.2236-4.80569 8.9129-7.85856 4.7798-2.12149 11.8104-5.62712 17.1142-5.62712l-3.3375.0323c-8.4924.53037-17.5152 2.65186-22.2886 9.55317 0 0-2.3866 2.96232-.401 3.90017" fill="#999"/><path d="m1089.9862 170.11259c0 1.59114 0 3.71909 2.1215 3.71909-.016-5.60775 6.4745-7.5934 9.1263-8.66064-5.1614 1.17724-9.6631 1.22892-11.2478 4.94155" fill="#292526"/><g fill="#999"><path d="m1065.5956 135.86479s-4.2236 1.87565-6.565-1.87574c-2.3479-3.75139-3.2857-7.50278-5.1615-8.90639-1.8756-1.40999-2.3414-2.11503-3.5121-1.17716-1.1771.93787-3.2856 6.80428-3.5185 8.68002-.2328 1.87573-1.1707.93787-1.6428 3.75139-.4655 2.8136-2.8136 2.57423-2.1086 8.20136.7053 5.62712 1.4035 10.08355 3.0464 11.72645 1.6429 1.64283 1.6429 3.27919.9379 4.92209-.7053 1.64283-2.3414 4.45643-2.3414 4.45643l-.4725.93787s3.2857-4.68926 3.5185-5.3943c.2328-.70526 1.4036-2.34139 0-5.39429-1.41-3.04636-4.2236-8.44065-3.2857-11.95275.9379-3.51856.7053-9.61789 6.0993-10.55575 5.3943-.93779 3.7514.23976 5.6272 1.17723 1.8756.93779 8.4406 1.63637 9.3785 1.40354"/><path d="m1112.0161 134.22188s4.2236 1.87574 6.565-1.87565c2.3478-3.75147 3.2857-7.50286 5.1614-8.9064 1.8757-1.40999 2.3414-2.10856 3.5186-1.1707 1.1707.93787 3.2792 6.79783 3.5121 8.67349.239 1.87573 1.1771.93786 1.6428 3.75147.4725 2.81352 2.8136 2.58069 2.1086 8.20781-.6983 5.62713-3.0465 9.61135-4.6893 11.25426-1.6364 1.63636 0 3.75139.7053 5.38775.7052 1.6429 2.3478 4.45643 2.3478 4.45643l.4655.93787s-3.2792-4.68926-3.5185-5.3943c-.2328-.69826-3.2793-2.3414-1.8757-5.38775 1.41-3.0529 6.0993-8.44073 5.1614-11.95929s-.7053-9.61135-6.0993-10.54922c-5.3878-.93787-3.7514.23276-5.6271 1.1707-1.8757.93787-8.4407 1.6429-9.3786 1.40353"/><path d="m1047.3042 178.06822c3.5186 3.51857 8.2078 7.26998 9.6179 9.14569 1.4035 1.87571.2328 5.85997 2.5742 8.44068 2.3479 2.58071 3.7514 3.04641 5.3943 1.1707 1.6428-1.87571 7.27-2.10855 8.9128-2.10855 1.6364 0 4.45 3.0464 2.1086 2.81356-2.3479-.23285-6.7978-2.34787-8.9129 1.40354-1.2806 2.28966 4.9286 7.74214 3.5186 7.74214-1.4035 0-5.6271-.93785-7.9685-3.51856-2.3479-2.58072-3.0529-2.58072-4.9286-6.79782-1.52-3.42802-2.1086-6.09928-3.5121-7.74214-1.41-1.6364-3.9907-4.68927-5.3943-5.85997-1.41-1.1707-1.41-4.68927-1.41-4.68927"/><path d="m1126.0839 178.06822c-3.5121 3.51857-8.2014 7.26998-9.6114 9.14569-1.4035 1.87571-.2328 5.85997-2.5807 8.44068-2.3414 2.58071-4.9221-3.04641-6.565-4.92211-1.6364-1.87571-5.6271.23284-7.9685 2.57424-1.1578 1.16423-3.7837 5.60772-1.8757 4.22358 2.5807-1.87571 6.565-7.73568 8.6735-3.98426 1.2872 2.28318-7.0306 12.89063-5.6271 12.89063 1.41 0 6.0993-.93785 8.4407-3.5121 2.3479-2.58071 4.9221-2.34787 6.7978-6.56497 1.5264-3.42802 2.115-6.09928 3.5186-7.74214 1.41-1.6364 3.9842-4.68927 5.3942-5.85997 1.4036-1.1707 1.4036-4.68927 1.4036-4.68927"/><path d="m1077.3155 185.10536s1.8757.23284 2.5807-.70501.9379-1.64286.9379-1.64286-.2329 8.91284.2328 10.31639c.4722 1.41001 0 6.09928 0 6.09928s-.2328-2.58072-.6985-5.62712c-.4722-3.05288-1.8757-7.97499-3.0529-8.44068"/><path d="m1095.6069 185.10536s-1.8757.23284-2.5807-.70501-.9379-1.64286-.9379-1.64286.2329 8.91284-.2328 10.31639c-.4722 1.41001 0 6.09928 0 6.09928s.2328-2.58072.705-5.62712c.4657-3.05288 1.8757-7.97499 3.0464-8.44068"/><path d="m1061.8442 139.38339s10.7821-3.28572 15.0056-5.16143c4.2171-1.87571 3.9843-3.27925 6.7978-2.10855 2.8136 1.1707 2.8136 2.10855 2.8136 2.10855s2.3479-1.1707 3.7514-2.10855c1.41-.93786 4.4564-1.1707 6.3321-.70501 1.8758.47216 6.7979 1.87571 8.6736 3.05287 1.8757 1.1707 4.2235 1.6364 5.8599 1.6364 1.6429 0-6.0928 1.17716-7.0306.705-.9379-.46569-7.0372-3.27925-10.0836-2.81356-3.0464.47216-7.0306 2.81356-7.0306 2.81356s-3.0529-2.81356-4.9286-2.81356-9.1392 3.75142-11.7199 4.45642c-2.5808.70501-8.4407.93786-8.4407.93786"/></g><path d="m1063.0537 170.4748s-8.0268-1.11893-2.7812 2.55485c1.7204 1.203 2.9946 2.38662 3.5703 3.09812.576.7115.6663 2.04388 2.4837 3.12404 1.8175 1.08017 5.7176 2.21849 8.2983 1.51353 1.4682-.4009 2.5807-.34952 3.0465.34952.4655.70527.3168 1.24185.7891 1.24185.4655 0 1.0865-.53713.8537-1.11893-.239-.58851-.4717-1.06071-.7053-1.64283-.2327-.5885.3495 0-1.1707-2.8136-1.5264-2.81352-1.8757-2.69715-2.2315-3.16927-.3495-.46551 1.5265 2.34786 1.7593 3.4021.239 1.05432.9379 1.87574.1168 2.22502-.8214.35575-1.8758.58851-2.8136.82142-.9379.23898-2.9752.0623-7.5287-1.68167-1.3259-.50443-1.0607-1.28716-2.0697-2.20556-1.0155-.91849-4.9286-4.08776-5.8212-4.98032-.8991-.8991 2.1797-.76365 4.2042-.71773" fill="#292526"/><path d="m1056.4305 170.70763c-.3496.0233 1.1966-.6788 3.1758-.92494 1.9792-.23899 4.5987-.33006 6.0475-.34252 2.2703-.0233 3.1628.0545 5.1485.54335 2.5031.6212 2.7489 1.1707 3.2663 1.54583 0 0-1.6364-.14245-2.4125-.42035-.7827-.27168-3.0594-.84734-4.049-.68581-.9896.16191-1.6105-.31683-2.2767.0233-.6664.34252-1.1966.60174-1.4489 1.86274-.2522 1.26769.9961 2.82652 3.3182 3.16927 2.8976.42658 3.6284-.82788 3.8548-1.97919.2328-1.15124-1.6299-2.59362-2.6906-2.69061 0 0 .6663.25222 1.9792.2779 1.313.0156 2.5289.56282 3.124.49821.6017-.0545.8279.0545.8279.0545s-3.4539-1.24831-4.2624-1.40999c-6.0346-1.20309-18.4854.83433-13.6021.47251" fill="#292526"/><path d="m1070.2525 172.74505s-.4398-1.40353-2.1861-1.6299c-1.7464-.23276-2.4837.45928-2.5032 1.17069-.023.71773.7567.98956 1.5653 1.15124.802.15569 1.4229-.5558 1.2612-.94433-.1619-.39467-.2973-.89902-.2973-.89902s2.0245.64689 2.1602 1.15132" fill="#fff"/><path d="m1112.2166 170.4748s8.0267-1.11893 2.7812 2.55485c-1.7204 1.203-2.9947 2.38662-3.5703 3.09812-.5761.7115-.6664 2.04388-2.4837 3.12404-1.8175 1.08017-5.7177 2.21849-8.2919 1.51353-1.4747-.4009-2.5807-.34952-3.0529.34952-.4655.70527-.3168 1.24185-.7826 1.24185-.4725 0-1.0931-.53713-.8538-1.11893.2328-.58851.4655-1.06071.6983-1.64283.2328-.5885-.3495 0 1.1707-2.8136 1.5264-2.81352 1.8757-2.69715 2.2315-3.16927.3495-.46551-1.5265 2.34786-1.7593 3.4021-.2328 1.05432-.9379 1.87574-.1168 2.22502.8215.35575 1.8758.58851 2.8136.82142.9379.23898 2.9752.0623 7.5287-1.68167 1.326-.50443 1.0607-1.28716 2.0762-2.20556 1.009-.91849 4.9157-4.08776 5.8148-4.98032.899-.8991-2.1798-.76365-4.2043-.71773" fill="#292526"/><path d="m1118.8398 170.70763c.3495.0233-1.1966-.6788-3.1693-.92494-1.9857-.23899-4.6052-.33006-6.0475-.34252-2.2768-.0233-3.1629.0545-5.155.54335-2.5031.6212-2.7489 1.1707-3.2598 1.54583 0 0 1.6299-.14245 2.4125-.42035.7761-.27168 3.0593-.84734 4.0425-.68581.9895.16191 1.6105-.31683 2.2767.0233.6663.34252 1.1965.60174 1.4488 1.86274.2522 1.26769-.9896 2.82652-3.3116 3.16927-2.9041.42658-3.635-.82788-3.8613-1.97919-.2328-1.15124 1.6299-2.59362 2.6906-2.69061 0 0-.6664.25222-1.9792.2779-1.3065.0156-2.5289.56282-3.124.49821-.5947-.0545-.8279.0545-.8279.0545s3.4539-1.24831 4.2624-1.40999c6.0346-1.20309 18.4854.83433 13.6021.47251" fill="#292526"/><path d="m1105.0178 172.74505s.4398-1.40353 2.1862-1.6299c1.7462-.23276 2.4837.45928 2.503 1.17069.023.71773-.7566.98956-1.5652 1.15124-.8021.15569-1.423-.5558-1.2613-.94433.1619-.39467.3036-.89902.3036-.89902s-2.0244.64689-2.1667 1.15132" fill="#fff"/><use height="600" transform="translate(900)" width="1200" xlink:href="#a"/></g></svg>