<svg height="496" width="881.172547" xmlns="http://www.w3.org/2000/svg"><path d="m0 0h444.912842v496h-444.912842z" fill="#fdd500"/><path d="m444.912842 0h436.259705v496h-436.259705z" fill="#fff"/><path d="m811.921 66.307-13.48 28.9474 23.044 19.8746-31.696-3.875-11.781 28.058-6.109-31.342-30.325-2.534 27.92-15.4959-6.961-29.6239 23.365 21.7655z" fill="#0164bb" transform="matrix(1.009479 .00940963 -.00940963 1.009479 -8.272191 -8.654114)"/><g style="fill:#d51516;fill-rule:evenodd;stroke:#000;stroke-width:7.08661;stroke-linejoin:round;stroke-linecap:round"><path d="m444.15 3.55618c7.583 1.69471 39.835 38.29612 42.586 46.87292 2.216 8.782-8.631 85.1789-18.748 110.3269-18.614 4.04-48.469 1.525-65.619-3.606-3.347-7.067-10.487-99.1164-7.211-112.4896 3.404-6.5371 41.986-39.99983 48.992-41.10422z"/><path d="m252.727 155.441c79.704 9.239 240.096 8.507 350.426 11.378 10.41 1.299-7.654 28.152-12.126 39.15-4.422 10.875-5.278 35.231-30.786 34.585-93.728-2.793-178.605-5.337-269.779-8.143-33.091-1.024-58.694-79.287-37.735-76.97z"/><path d="m375.418 236.392c16.113 1.861 80.121.725 104.029 3.978 16.348 2.472 16.151 58.213 8.598 66.9-8.407 9.601-48.774 3.258-71.141 9.908-21.292 6.038-23.021 12.665-62.876 8.119 9.871-52.623 3.697-91.047 21.39-88.905z"/><path d="m341.237 332.642c6.143-8.157 17.6-5.816 31.277-4.86 18.685.879 59.591-14.726 86.813-14.449 16.514.595 29.235 7.246 28.902 22.189-.602 11.819.59 40.264-6.806 56.304-4.39 10.445-68.381 8.456-97.729-2.085-8.564-3.032-40.427 2.859-44.06-2.696-4.238-5.829-6.916-43.09 1.603-54.403z"/><path d="m345.829 393.668c2.534-4.693 14.399-6.297 21.927-5.769 19.874 1.395 57.453 18.001 99.577 10.256 25.403-4.592 52.796 50.01 43.819 64.288-9.196 15.126-19.815 22.071-30.882 30.32-86.239.779-148.086 8.212-147.016-24.86.555-16.955 2.263-55.927 12.575-74.235z"/></g></svg>