<svg height="496.06299" width="992.12598" xmlns="http://www.w3.org/2000/svg" xmlns:xlink="http://www.w3.org/1999/xlink"><path d="m0-.000004h992.12598v248.03149h-992.12598z" fill="#076a21" fill-rule="evenodd"/><path d="m0 248.03149h992.12598v248.03149h-992.12598z" fill="#fdd401" fill-rule="evenodd"/><g transform="matrix(1.423471 0 0 1.423471 598.3113 78.36362)"><path d="m129.35157 78.24246-3.41397-26.932438" fill="none" stroke="#000" stroke-width="1pt"/><path d="m159.58047 207.32086s-9.51428-6.91947-10.81169-14.27142c-1.2974-7.35194-2.16233-17.2987-2.16233-17.2987l6.91948 3.89221s.86494 9.94675 1.2974 14.27142c.43247 4.32468 4.75714 13.40649 4.75714 13.40649z" fill="#016b29" fill-rule="evenodd" stroke="#003d00" stroke-width=".875"/><path d="m173.93061 123.87657c7.3211-.57692 7.7057 11.22224 7.7057 11.22224s-12.97402-6.91948-18.5961-6.91948c-5.62207 0 10.8904-4.30276 10.8904-4.30276z" fill="#016b29" fill-rule="evenodd" stroke="#003d00" stroke-width=".875"/><path d="m181.4112 134.57148c-.28399-.28399-9.88277-9.71237-14.59696-9.59878-4.71419.1136-4.82779.22719-4.82779.22719" fill="none" stroke="#003d00" stroke-width=".875"/><path d="m100.33244 129.04426s-7.351947 0-11.244154 0c-3.892206 0-11.244152-.86493-11.244152-.86493s10.379218 6.91948 16.001294 6.48701 19.028562.43247 19.028562.43247l-7.78441-5.62208z" fill="#016b29" fill-rule="evenodd" stroke="#003d00" stroke-width=".875"/><path d="m78.948516 128.55094s10.337144 2.95347 14.426564 3.12387c4.089419.17039 15.56251-.56798 15.56251-.56798" fill="none" stroke="#003d00" stroke-width=".875"/><path d="m158.28307 206.45593c-1.2974-2.16234-6.91948-8.64935-7.78441-14.27142-.86494-5.62208 1.2974-13.40649 1.2974-13.40649" fill="#016b29" fill-rule="evenodd" stroke="#003d00" stroke-width=".875"/><path d="m81.73634 194.34684s21.62337-27.67791 25.51558-31.13765c3.8922-3.45974 21.62337-12.54156 23.78571-14.70389 2.16233-2.16234 22.4883-21.62337 26.81297-23.35324 4.32468-1.72987 16.86623-1.29741 16.86623-1.29741s-4.32467.86494-6.91948 3.02728c-2.5948 2.16233-8.21688 8.21688-12.10908 10.81168-3.89221 2.59481-33.73246 21.62337-37.62467 25.94805-3.8922 4.32467-9.51428 11.67662-12.54155 14.27142-3.02727 2.59481-23.78571 16.43376-23.78571 16.43376z" fill="#016b29" fill-rule="evenodd" stroke="#003d00" stroke-width=".875"/><path d="m99.899972 129.04426s12.541558 8.21688 14.703888 10.81169c2.16234 2.5948 12.54156 12.97402 13.40649 14.70389.86494 1.72987 14.7039 21.62337 18.5961 25.08311 3.89221 3.45974 7.78442 9.08182 8.21688 11.67662.43247 2.5948.43247 2.5948.43247 2.5948s-.86493-17.73116-1.72987-19.46103c-.86493-1.72987-4.75714-3.02727-8.21688-6.91948-3.45974-3.8922-10.37922-7.35194-17.29869-18.16363-2.16234-5.18961-14.7039-19.8935-17.73117-20.75843-3.02727-.86494-10.379218.43246-10.379218.43246z" fill="#016b29" fill-rule="evenodd" stroke="#003d00" stroke-width=".875"/><path d="m183.79865 181.80529s-2.59481-11.67662-12.10909-18.5961-25.94804-13.40649-43.67921-13.83896c-17.73116-.43247-27.24544 1.2974-28.542846 1.72987-1.297402.43247-4.324674 7.35195-4.324674 7.35195s17.73116-3.89221 28.54285-3.89221c10.81168 0 32.43505 8.21688 36.75973 10.81169 4.32467 2.5948 23.35324 16.43376 23.35324 16.43376z" fill="#016b29" fill-rule="evenodd" stroke="#003d00" stroke-width=".875"/><path d="m83.033743 193.04944s17.731167-15.56883 20.325967-18.16363c2.59481-2.59481 7.78441-11.24415 11.67662-13.83896 3.89221-2.5948 32.00259-23.35324 34.16493-25.08311 2.16233-1.72987 13.83895-11.67662 13.83895-11.67662" fill="none" stroke="#003d00" stroke-width=".875"/><path d="m99.035037 154.99231s19.028563-3.89221 27.677913-3.45974 39.35454 12.54155 42.38181 14.70389 12.97402 13.83896 12.97402 13.83896" fill="none" stroke="#003d00" stroke-width=".875"/><path d="m154.82333 184.83256s-26.38051-34.16493-31.13765-39.35454c-4.75714-5.1896-19.46103-16.86622-19.46103-16.86622" fill="none" stroke="#003d00" stroke-width=".875"/><path d="m76.979199 168.3988s9.081815-6.91948 12.974022-9.94675 9.514283-7.35195 9.514283-7.35195l5.576306-.79391s-6.008773 8.57832-9.468513 11.17313c-3.459739 2.5948-18.596098 6.91948-18.596098 6.91948z" fill="#016b29" fill-rule="evenodd" stroke="#003d00" stroke-width=".875"/><path d="m101.75137 150.83494s-5.904597 6.04192-8.147429 7.68971c-2.242833 1.6478-14.967476 8.87979-14.967476 8.87979" fill="none" stroke="#003d00" stroke-width=".875"/><path d="m131.90256 243.21566-.86493-128.01035s3.02727-2.16234 4.32467-8.21688c1.2974-6.05455-.86494-28.110386-.86494-28.110386s-15.13635-3.027272-14.70389-1.297402c.43247 1.729869 1.72987 20.758435 2.59481 24.218178.86493 3.45974 4.75714 13.40649 4.75714 13.40649s-2.59481 112.00906-2.59481 116.33373 7.35195 11.67662 7.35195 11.67662z" fill="#016b29" fill-rule="evenodd" stroke="#003d00" stroke-width=".875"/><path d="m124.34122 84.621208-.96388 12.530511" fill="none" stroke="#003d00" stroke-width=".875"/><path d="m125.30511 98.4369c0-1.285181.96388-13.173101.96388-13.173101" fill="none" stroke="#003d00" stroke-width=".875"/><path d="m128.19676 101.00726-.32129-17.671232" fill="none" stroke="#003d00" stroke-width=".875"/><path d="m130.44583 104.8628.32129-19.277706" fill="none" stroke="#003d00" stroke-width=".875"/><path d="m131.08842 108.71834s2.24906-5.14072 2.24906-9.960145c0-4.819427 0-11.566626 0-11.566626" fill="none" stroke="#003d00" stroke-width=".875"/><path d="m124.31748 231.20932s2.4841-1.82649 5.27447 2.44534c1.92777 2.89165 2.24906 7.42855 2.33532 8.89498" fill="none" stroke="#003d00" stroke-width=".875"/><g fill-rule="evenodd"><path d="m84.331145 43.848184s1.297402 16.433761 6.054544 20.758435c4.757141 4.324675 16.866231 4.757142 16.866231 4.757142s-13.406492 7.351946-14.271427 14.703892 7.351947 17.731167 7.351947 17.731167 2.5948-3.89221 4.32467-4.757144c1.72987-.864935 5.62208-.432468 7.78442-1.729871 2.16233-1.297402 7.35194-7.351945 9.51428-7.351945s8.64935 6.054543 11.24415 7.351945c2.59481 1.297403 6.48701 2.594805 8.21688 3.892207 1.72987 1.297398 4.32468 2.594808 4.32468 2.594808s3.02727-3.027275 4.32467-5.189612 0-3.45974 1.2974-5.622077c1.29741-2.162337 7.35195-8.649348 6.05455-12.109087-1.29741-3.459739-3.02727-4.324674-6.05455-4.757142-3.02727-.432467-6.05454 0-6.05454 0l6.05454-3.459739s3.45974 1.297402 6.48701 1.297402c3.02728 0 13.83896-3.459739 16.0013-3.892206 2.16234-.432468 7.35194.864935 7.35194.864935s-1.72987-18.596099-16.43376-19.461034-12.97402 8.216881-16.86623 10.811685c-3.8922 2.594805-6.91947 6.054544-6.91947 6.054544s1.2974-4.324674 3.45973-6.919478c2.16234-2.594805 7.35195-7.784414 9.08182-10.379218 1.72987-2.594805 3.89221-9.081816 3.89221-12.109088s-2.16234-8.216881-2.16234-10.811685.43247-5.189609.43247-5.189609-8.64935 2.594805-13.83896 6.919479-10.81168 14.271424-10.81168 14.271424-3.89221-7.351946-6.48702-9.514283c-2.5948-2.162337-9.51428-5.622076-11.24415-7.351946-1.72987-1.729869-3.89221-5.189609-3.89221-5.189609s-5.62207 11.67662-5.62207 15.568827 3.02727 9.94675 3.02727 9.94675c-4.32467-1.72987-9.514283.432468-13.40649.432468-3.892206 0-9.081815-2.162337-9.081815-2.162337z" fill="#dd1810" stroke="#000" stroke-width=".875"/><path d="m100.90181 88.105043s3.03464-6.448612 6.82794-7.586602 16.3112 1.51732 16.3112 1.51732l-1.89665 4.172632s-4.9313 0-5.31063-1.517321c-.37933-1.51732 1.13799-2.27598 1.13799-2.27598s-5.68995-.379331-9.10392 0c-3.41397.37933-7.96593 5.689951-7.96593 5.689951z" fill="#fee500"/><path d="m133.14487 81.656431s2.65531.37933 4.17263 2.275981c1.51732 1.89665 3.7933 6.069282 3.7933 6.069282s1.51732-3.034641-.37933-5.310622c-1.89665-2.27598-3.41397-3.413971-3.41397-3.413971l1.51732-2.27598s2.27598.37933 3.41397 2.27598c1.13799 1.896651 2.27598 2.655311 2.27598 2.655311s.75866-2.655311-.75866-4.172631c-1.51732-1.517321-2.65531-1.896651-2.65531-1.896651s1.51732-1.13799 3.7933-.37933 6.06928 3.034641 6.06928 3.034641-2.27598-3.793301-4.17263-4.172631-4.55196-.37933-4.55196-.37933 9.86258-10.241913 13.65589-12.517894c3.7933-2.275981 11.00057-3.413971 11.00057-3.413971s0-1.51732-2.65531-1.896651c-2.65531-.37933-14.03522 5.689952-14.03522 5.689952l2.65531-4.551961s-16.69052 9.862583-18.58717 12.517893c-1.89665 2.655311 3.03464-7.207272 4.93129-9.483252 1.89665-2.275981 5.68995-5.689952 6.82794-9.103923s2.27598-6.069282 2.27598-6.069282-7.20727 6.827942-8.72459 9.103923-2.65531 6.827942-4.93129 5.689952c-2.27598-1.137991-2.65531-4.172632-2.65531-4.172632s-.75866 5.310622-2.27598 4.931292-2.27598-2.275981-2.27598-2.275981 0 3.413971-1.89665 3.034641-.37933-3.034641-1.89665-5.689952c-1.51732-2.65531-3.79331-3.034641-3.79331-3.034641s1.89666 4.172632 1.51733 6.069282c-.37933 1.896651-.75867 6.448612-3.41398 4.931292-2.65531-1.517321-3.03464-3.793301-4.93129-3.413971s.75866 1.89665-.37933 3.034641c-1.13799 1.13799-3.41397 1.89665-3.41397 1.89665s2.65531.37933 4.17263 2.655311 4.93129 2.275981 6.44861 5.310621c1.51733 3.034641 2.27599 7.586603 2.27599 7.586603z" fill="#fee500"/><path d="m117.97166 64.965906 9.10393 15.173205s3.03464-4.172631 4.93129-4.172631 4.17263 1.51732 4.17263 1.51732 1.13799-7.207272.75866-9.483253c-.37933-2.27598-1.51732-4.551961-4.17263-4.551961s-3.41397-.37933-4.17263 1.51732c-.75866 1.896651-.75866 7.965933-.75866 7.965933s-1.13799-6.827942-3.7933-8.724593c-2.65531-1.89665-2.65531-2.655311-4.55197-1.51732-1.89665 1.13799-1.51732 2.27598-1.51732 2.27598z" fill="#016b29"/><path d="m108.48841 75.96648s2.27598 2.27598 4.93129 2.27598 10.24192 1.137991 10.24192 1.137991l-.37933-1.517321s-12.89723-3.034641-14.79388-1.89665z" fill="#fee500"/><path d="m106.97109 86.208393s-2.65531.75866-3.7933 3.03464c-1.13799 2.275981.37933 3.793302.37933 3.793302s0-2.655311 1.89665-3.793302c1.89665-1.13799 1.51732-3.03464 1.51732-3.03464z" fill="#fee500"/><path d="m92.935877 61.551935s1.89665 2.275981 3.793301 2.275981 5.689952.75866 5.689952.75866-4.551962 2.275981-6.448612 1.517321c-1.896651-.75866-3.034641-4.551962-3.034641-4.551962z" fill="#fee500"/><path d="m99.763819 49.792702s1.896651 1.51732 4.551961 3.034641c2.65531 1.51732 4.55196 1.51732 4.55196 1.51732s-.75866-1.51732-3.03464-2.65531c-2.27598-1.137991-6.069281-1.896651-6.069281-1.896651z" fill="#fee500"/><path d="m109.6264 35.378158s-1.13799 3.413971 0 6.448612 3.7933 5.689951 3.7933 5.689951 1.13799-4.551961-.37933-6.448611c-1.51732-1.896651-3.41397-5.689952-3.41397-5.689952z" fill="#fee500"/><path d="m113.4197 34.240168s1.51732 2.27598 2.27598 4.172631c.75866 1.89665 3.03464 3.793301 3.03464 3.793301s0-3.413971-1.51732-4.931292c-1.51732-1.51732-3.7933-3.03464-3.7933-3.03464z" fill="#fee500"/><path d="m150.59405 35.378158s-1.51732 0-2.65531 2.275981c-1.13799 2.27598-.37933 4.551961-.37933 4.551961s.37933-1.517321 1.89665-3.413971c1.51732-1.896651 1.13799-3.413971 1.13799-3.413971z" fill="#fee500"/><path d="m139.97281 49.223705c.00072-.943252-.76373-1.708292-1.70698-1.708292-.94326 0-1.70771.76504-1.70699 1.708292-.00072.943252.76373 1.708292 1.70699 1.708292.94325 0 1.7077-.76504 1.70698-1.708292z" transform="matrix(1.333333 0 0 1.111111 -48.55426 -4.520975)"/><path d="m139.97281 49.223705c.00072-.943252-.76373-1.708292-1.70698-1.708292-.94326 0-1.70771.76504-1.70699 1.708292-.00072.943252.76373 1.708292 1.70699 1.708292.94325 0 1.7077-.76504 1.70698-1.708292z" transform="matrix(1.333333 0 0 1.111111 -51.96818 -.727667)"/><path d="m139.97281 49.223705c.00072-.943252-.76373-1.708292-1.70698-1.708292-.94326 0-1.70771.76504-1.70699 1.708292-.00072.943252.76373 1.708292 1.70699 1.708292.94325 0 1.7077-.76504 1.70698-1.708292z" transform="matrix(1.333333 0 0 1.111111 -44.7609 -3.762308)"/><path d="m139.97281 49.223705c.00072-.943252-.76373-1.708292-1.70698-1.708292-.94326 0-1.70771.76504-1.70699 1.708292-.00072.943252.76373 1.708292 1.70699 1.708292.94325 0 1.7077-.76504 1.70698-1.708292z" transform="matrix(1.333333 0 0 1.111111 -42.48493 -.727667)"/><path d="m139.97281 49.223705c.00072-.943252-.76373-1.708292-1.70698-1.708292-.94326 0-1.70771.76504-1.70699 1.708292-.00072.943252.76373 1.708292 1.70699 1.708292.94325 0 1.7077-.76504 1.70698-1.708292z" transform="matrix(1.333333 0 0 1.111111 -61.83076 -5.279628)"/><path d="m139.97281 49.223705c.00072-.943252-.76373-1.708292-1.70698-1.708292-.94326 0-1.70771.76504-1.70699 1.708292-.00072.943252.76373 1.708292 1.70699 1.708292.94325 0 1.7077-.76504 1.70698-1.708292z" transform="matrix(1.333333 0 0 1.111111 -57.65813 -6.038289)"/><path d="m139.97281 49.223705c.00072-.943252-.76373-1.708292-1.70698-1.708292-.94326 0-1.70771.76504-1.70699 1.708292-.00072.943252.76373 1.708292 1.70699 1.708292.94325 0 1.7077-.76504 1.70698-1.708292z" transform="matrix(1.333333 0 0 1.111111 -53.86483 -4.900299)"/><path d="m139.97281 49.223705c.00072-.943252-.76373-1.708292-1.70698-1.708292-.94326 0-1.70771.76504-1.70699 1.708292-.00072.943252.76373 1.708292 1.70699 1.708292.94325 0 1.7077-.76504 1.70698-1.708292z" transform="matrix(1.333333 0 0 1.111111 -66.00339 -1.486327)"/><path d="m139.97281 49.223705c.00072-.943252-.76373-1.708292-1.70698-1.708292-.94326 0-1.70771.76504-1.70699 1.708292-.00072.943252.76373 1.708292 1.70699 1.708292.94325 0 1.7077-.76504 1.70698-1.708292z" transform="matrix(1.333333 0 0 1.111111 -74.34866 .789653)"/><path d="m139.97281 49.223705c.00072-.943252-.76373-1.708292-1.70698-1.708292-.94326 0-1.70771.76504-1.70699 1.708292-.00072.943252.76373 1.708292 1.70699 1.708292.94325 0 1.7077-.76504 1.70698-1.708292z" transform="matrix(1.333333 0 0 1.111111 -37.55363 11.4109)"/><path d="m139.97281 49.223705c.00072-.943252-.76373-1.708292-1.70698-1.708292-.94326 0-1.70771.76504-1.70699 1.708292-.00072.943252.76373 1.708292 1.70699 1.708292.94325 0 1.7077-.76504 1.70698-1.708292z" transform="matrix(1.333333 0 0 1.111111 -32.24301 13.30755)"/><path d="m139.97281 49.223705c.00072-.943252-.76373-1.708292-1.70698-1.708292-.94326 0-1.70771.76504-1.70699 1.708292-.00072.943252.76373 1.708292 1.70699 1.708292.94325 0 1.7077-.76504 1.70698-1.708292z" transform="matrix(1.333333 0 0 1.111111 -30.34636 9.514248)"/><path d="m139.97281 49.223705c.00072-.943252-.76373-1.708292-1.70698-1.708292-.94326 0-1.70771.76504-1.70699 1.708292-.00072.943252.76373 1.708292 1.70699 1.708292.94325 0 1.7077-.76504 1.70698-1.708292z" fill-opacity=".75" transform="matrix(1.333333 0 0 1.111111 -20.48378 10.27291)"/><path d="m139.97281 49.223705c.00072-.943252-.76373-1.708292-1.70698-1.708292-.94326 0-1.70771.76504-1.70699 1.708292-.00072.943252.76373 1.708292 1.70699 1.708292.94325 0 1.7077-.76504 1.70698-1.708292z" transform="matrix(1.333333 0 0 1.111111 -68.27937 23.17013)"/><path d="m139.97281 49.223705c.00072-.943252-.76373-1.708292-1.70698-1.708292-.94326 0-1.70771.76504-1.70699 1.708292-.00072.943252.76373 1.708292 1.70699 1.708292.94325 0 1.7077-.76504 1.70698-1.708292z" transform="matrix(1.333333 0 0 1.111111 -63.72741 25.44611)"/><path d="m139.97281 49.223705c.00072-.943252-.76373-1.708292-1.70698-1.708292-.94326 0-1.70771.76504-1.70699 1.708292-.00072.943252.76373 1.708292 1.70699 1.708292.94325 0 1.7077-.76504 1.70698-1.708292z" transform="matrix(1.333333 0 0 1.111111 -48.55421 30.3774)"/><path d="m139.97281 49.223705c.00072-.943252-.76373-1.708292-1.70698-1.708292-.94326 0-1.70771.76504-1.70699 1.708292-.00072.943252.76373 1.708292 1.70699 1.708292.94325 0 1.7077-.76504 1.70698-1.708292z" transform="matrix(1.333333 0 0 1.111111 -51.58885 29.23941)"/><path d="m139.97281 49.223705c.00072-.943252-.76373-1.708292-1.70698-1.708292-.94326 0-1.70771.76504-1.70699 1.708292-.00072.943252.76373 1.708292 1.70699 1.708292.94325 0 1.7077-.76504 1.70698-1.708292z" transform="matrix(1.333333 0 0 1.111111 -79.27991 5.720947)"/><path d="m139.97281 49.223705c.00072-.943252-.76373-1.708292-1.70698-1.708292-.94326 0-1.70771.76504-1.70699 1.708292-.00072.943252.76373 1.708292 1.70699 1.708292.94325 0 1.7077-.76504 1.70698-1.708292z" transform="matrix(1.333333 0 0 1.111111 -74.72798 7.996925)"/><path d="m139.97281 49.223705c.00072-.943252-.76373-1.708292-1.70698-1.708292-.94326 0-1.70771.76504-1.70699 1.708292-.00072.943252.76373 1.708292 1.70699 1.708292.94325 0 1.7077-.76504 1.70698-1.708292z" transform="matrix(1.333333 0 0 1.111111 -68.27937 12.16956)"/><path d="m139.97281 49.223705c.00072-.943252-.76373-1.708292-1.70698-1.708292-.94326 0-1.70771.76504-1.70699 1.708292-.00072.943252.76373 1.708292 1.70699 1.708292.94325 0 1.7077-.76504 1.70698-1.708292z" transform="matrix(1.333333 0 0 1.111111 -73.21066 12.92822)"/><path d="m139.97281 49.223705c.00072-.943252-.76373-1.708292-1.70698-1.708292-.94326 0-1.70771.76504-1.70699 1.708292-.00072.943252.76373 1.708292 1.70699 1.708292.94325 0 1.7077-.76504 1.70698-1.708292z" transform="matrix(1.333333 0 0 1.111111 -70.93468 17.10085)"/><path d="m139.97281 49.223705c.00072-.943252-.76373-1.708292-1.70698-1.708292-.94326 0-1.70771.76504-1.70699 1.708292-.00072.943252.76373 1.708292 1.70699 1.708292.94325 0 1.7077-.76504 1.70698-1.708292z" transform="matrix(1.333333 0 0 1.111111 -66.00339 16.72152)"/><path d="m139.97281 49.223705c.00072-.943252-.76373-1.708292-1.70698-1.708292-.94326 0-1.70771.76504-1.70699 1.708292-.00072.943252.76373 1.708292 1.70699 1.708292.94325 0 1.7077-.76504 1.70698-1.708292z" transform="matrix(1.333333 0 0 1.111111 -69.79669 5.341615)"/><path d="m139.97281 49.223705c.00072-.943252-.76373-1.708292-1.70698-1.708292-.94326 0-1.70771.76504-1.70699 1.708292-.00072.943252.76373 1.708292 1.70699 1.708292.94325 0 1.7077-.76504 1.70698-1.708292z" transform="matrix(1.333333 0 0 1.111111 -65.24473 3.444964)"/><path d="m139.97281 49.223705c.00072-.943252-.76373-1.708292-1.70698-1.708292-.94326 0-1.70771.76504-1.70699 1.708292-.00072.943252.76373 1.708292 1.70699 1.708292.94325 0 1.7077-.76504 1.70698-1.708292z" transform="matrix(1.333333 0 0 1.111111 -60.69277 -.717772)"/><path d="m139.97281 49.223705c.00072-.943252-.76373-1.708292-1.70698-1.708292-.94326 0-1.70771.76504-1.70699 1.708292-.00072.943252.76373 1.708292 1.70699 1.708292.94325 0 1.7077-.76504 1.70698-1.708292z" transform="matrix(1.333333 0 0 1.111111 -58.41679 -1.486327)"/><path d="m139.97281 49.223705c.00072-.943252-.76373-1.708292-1.70698-1.708292-.94326 0-1.70771.76504-1.70699 1.708292-.00072.943252.76373 1.708292 1.70699 1.708292.94325 0 1.7077-.76504 1.70698-1.708292z" transform="matrix(1.333333 0 0 1.111111 -55.76148 4.582954)"/><path d="m139.97281 49.223705c.00072-.943252-.76373-1.708292-1.70698-1.708292-.94326 0-1.70771.76504-1.70699 1.708292-.00072.943252.76373 1.708292 1.70699 1.708292.94325 0 1.7077-.76504 1.70698-1.708292z" transform="matrix(1.333333 0 0 1.111111 -47.03689 9.514246)"/><path d="m139.97281 49.223705c.00072-.943252-.76373-1.708292-1.70698-1.708292-.94326 0-1.70771.76504-1.70699 1.708292-.00072.943252.76373 1.708292 1.70699 1.708292.94325 0 1.7077-.76504 1.70698-1.708292z" transform="matrix(1.333333 0 0 1.111111 -42.48492 5.341615)"/><path d="m139.97281 49.223705c.00072-.943252-.76373-1.708292-1.70698-1.708292-.94326 0-1.70771.76504-1.70699 1.708292-.00072.943252.76373 1.708292 1.70699 1.708292.94325 0 1.7077-.76504 1.70698-1.708292z" transform="matrix(1.333333 0 0 1.111111 -37.55363 -4.520968)"/><path d="m139.97281 49.223705c.00072-.943252-.76373-1.708292-1.70698-1.708292-.94326 0-1.70771.76504-1.70699 1.708292-.00072.943252.76373 1.708292 1.70699 1.708292.94325 0 1.7077-.76504 1.70698-1.708292z" transform="matrix(1.333333 0 0 1.111111 -45.14023 24.68745)"/></g><path d="m133.42566 75.996166c.66506-5.699847 2.17249-10.931716 2.83755-16.631563" fill="none" stroke="#000" stroke-width="1pt"/><path d="m139.97281 49.223705c.00072-.943252-.76373-1.708292-1.70698-1.708292-.94326 0-1.70771.76504-1.70699 1.708292-.00072.943252.76373 1.708292 1.70699 1.708292.94325 0 1.7077-.76504 1.70698-1.708292z" fill-rule="evenodd" transform="matrix(1.333333 0 0 1.111111 -45.14023 20.51482)"/><path d="m139.97281 49.223705c.00072-.943252-.76373-1.708292-1.70698-1.708292-.94326 0-1.70771.76504-1.70699 1.708292-.00072.943252.76373 1.708292 1.70699 1.708292.94325 0 1.7077-.76504 1.70698-1.708292z" fill-rule="evenodd" transform="matrix(1.333333 0 0 1.111111 -45.14023 16.72152)"/><path d="m139.97281 49.223705c.00072-.943252-.76373-1.708292-1.70698-1.708292-.94326 0-1.70771.76504-1.70699 1.708292-.00072.943252.76373 1.708292 1.70699 1.708292.94325 0 1.7077-.76504 1.70698-1.708292z" fill-rule="evenodd" transform="matrix(1.333333 0 0 1.111111 -67.14138 30.3774)"/><path d="m139.97281 49.223705c.00072-.943252-.76373-1.708292-1.70698-1.708292-.94326 0-1.70771.76504-1.70699 1.708292-.00072.943252.76373 1.708292 1.70699 1.708292.94325 0 1.7077-.76504 1.70698-1.708292z" fill-rule="evenodd" transform="matrix(1.333333 0 0 1.111111 -63.34808 29.61874)"/><path d="m139.97281 49.223705c.00072-.943252-.76373-1.708292-1.70698-1.708292-.94326 0-1.70771.76504-1.70699 1.708292-.00072.943252.76373 1.708292 1.70699 1.708292.94325 0 1.7077-.76504 1.70698-1.708292z" fill-rule="evenodd" transform="matrix(1.333333 0 0 1.111111 -58.41679 30.3774)"/><path d="m139.97281 49.223705c.00072-.943252-.76373-1.708292-1.70698-1.708292-.94326 0-1.70771.76504-1.70699 1.708292-.00072.943252.76373 1.708292 1.70699 1.708292.94325 0 1.7077-.76504 1.70698-1.708292z" fill-rule="evenodd" transform="matrix(1.333333 0 0 1.111111 -66.00339 8.376255)"/><path d="m139.97281 49.223705c.00072-.943252-.76373-1.708292-1.70698-1.708292-.94326 0-1.70771.76504-1.70699 1.708292-.00072.943252.76373 1.708292 1.70699 1.708292.94325 0 1.7077-.76504 1.70698-1.708292z" fill-opacity=".75" fill-rule="evenodd" transform="matrix(1.333333 0 0 1.111111 -60.69277 12.16956)"/><path d="m135.4159 76.636492c2.57642-7.913431 3.8425-16.950009 3.79825-25.7058" fill="none" stroke="#000" stroke-width="1pt"/><path d="m139.97281 49.223705c.00072-.943252-.76373-1.708292-1.70698-1.708292-.94326 0-1.70771.76504-1.70699 1.708292-.00072.943252.76373 1.708292 1.70699 1.708292.94325 0 1.7077-.76504 1.70698-1.708292z" fill-rule="evenodd" transform="matrix(1.333333 0 0 1.111111 -47.79555 4.582954)"/><path d="m139.97281 49.223705c.00072-.943252-.76373-1.708292-1.70698-1.708292-.94326 0-1.70771.76504-1.70699 1.708292-.00072.943252.76373 1.708292 1.70699 1.708292.94325 0 1.7077-.76504 1.70698-1.708292z" fill-rule="evenodd" transform="matrix(1.333333 0 0 1.111111 -39.07095 17.48018)"/><path d="m129.07573 77.321348c2.22169-7.475002 3.13305-15.511578 3.29564-23.267367" fill="none" stroke="#000" stroke-width="1pt"/><path d="m127.16424 78.996172c-1.9163-8.849386-1.39912-17.605177-3.50262-26.548159" fill="none" stroke="#000" stroke-width="1pt"/><path d="m125.83411 77.010874c-3.0231-6.417413-4.17429-13.115613-7.10379-19.25224" fill="none" stroke="#000" stroke-width="1pt"/></g><g transform="matrix(.901639 0 0 .901639 -104.8469 9.874816)"><g id="a"><path d="m265.30699 205.5812s5.31374-51.23954 4.17508-51.6191c-1.13866-.37955-2.84664.75911-3.9853.18978s-.03255-3.52158-.03255-3.52158c1.57648-.49141 3.14831-.52068 4.72944-1.47423 1.58113-.95356 3.17157-2.8314 4.75735-4.2471l-4.81339-27.56478c5.80961 6.51188 9.26024 22.1527 10.25657 23.31648.9072-1.59939 4.12687-16.09349 10.38216-23.84319l-4.67157 27.61705c1.53114 1.69859 2.53135 3.53476 3.88422 4.38657s3.34208 1.71214 4.51668 1.71717c1.60443-.80221 1.16549 2.0954.02683 3.04428-1.13865.94888-3.98529.37955-3.98529.37955l4.7444 51.6191s-8.16037-2.27731-14.42299-2.65686c-6.26261-.37955-15.56164 2.65686-15.56164 2.65686z" fill="#fed501" fill-rule="evenodd" stroke="#917b01" stroke-width=".5"/><path d="m270.04807 170.8494c.86862-2.74291 1.48907-21.4535 2.10952-22.92291" fill="none" stroke="#917b01" stroke-width=".5"/><path d="m272.52985 169.67387c.24818-2.74291.74453-21.55146.74453-21.55146" fill="none" stroke="#917b01" stroke-width=".5"/><path d="m267.97886 204.41186c1.01015-4.04061 1.73168-31.60332 2.45322-33.76793" fill="none" stroke="#917b01" stroke-width=".5"/><path d="m274.51529 148.31833-.1241 21.35554" fill="none" stroke="#917b01" stroke-width=".5"/><path d="m270.865 202.68017c.28862-4.04061.86585-31.74762.86585-31.74762" fill="none" stroke="#917b01" stroke-width=".5"/><path d="m276.12844 169.47795c.24817-.48981.12409-21.06166.12409-21.06166" fill="none" stroke="#917b01" stroke-width=".5"/><path d="m273.17393 171.22116-.14431 31.45901" fill="none" stroke="#917b01" stroke-width=".5"/><path d="m277.7416 169.37999c0-1.46942.24817-19.6902.12408-20.96369" fill="none" stroke="#917b01" stroke-width=".5"/><path d="m275.04992 202.39156c.28861-.72154.14431-31.0261.14431-31.0261" fill="none" stroke="#917b01" stroke-width=".5"/><path d="m276.92592 202.24725c0-2.16461.28861-29.00579.1443-30.88178" fill="none" stroke="#917b01" stroke-width=".5"/><path d="m278.94621 171.94269.14431 30.01594" fill="none" stroke="#917b01" stroke-width=".5"/><path d="m281.25514 171.50977-.14431 30.16025" fill="none" stroke="#917b01" stroke-width=".5"/><path d="m283.13113 171.36546-.1443 30.30456" fill="none" stroke="#917b01" stroke-width=".5"/><path d="m285.15144 172.95285-.14431 29.2944" fill="none" stroke="#917b01" stroke-width=".5"/><path d="m286.73882 172.66423.72154 30.01594" fill="none" stroke="#917b01" stroke-width=".5"/><path d="m279.47883 148.80814.1241 20.37592" fill="none" stroke="#917b01" stroke-width=".5"/><path d="m288.18189 172.66423 1.73169 30.01594" fill="none" stroke="#917b01" stroke-width=".5"/><path d="m281.46427 148.51425-.12409 20.47389" fill="none" stroke="#917b01" stroke-width=".5"/><path d="m290.2022 172.66423 2.16461 31.02609" fill="none" stroke="#917b01" stroke-width=".5"/><path d="m283.07742 148.41629-.12408 20.57185" fill="none" stroke="#917b01" stroke-width=".5"/><path d="m284.81468 149.49387-.1241 19.88612" fill="none" stroke="#917b01" stroke-width=".5"/><path d="m286.17965 149.29794.62045 20.37593" fill="none" stroke="#917b01" stroke-width=".5"/><path d="m287.42053 149.29794 1.48908 20.37593" fill="none" stroke="#917b01" stroke-width=".5"/><path d="m289.15779 149.29794 1.86133 21.06166" fill="none" stroke="#917b01" stroke-width=".5"/><path d="m278.81562 139.77249s-15.02683-.42315-17.30415-1.18225c-2.27731-.75911-3.60574-.75911-3.60574-.75911s1.89776-3.79552 3.60574-4.17507c1.70799-.37955 6.26261 1.89776 6.26261 1.89776l11.75753 4.04591s14.05202-6.13345 18.2271-5.75389c4.17507.37955 4.36485 3.41597 4.36485 3.41597s-2.27731.94888-3.2262 1.5182c-.94888.56933-20.08174.99248-20.08174.99248z" fill="#fed501" fill-rule="evenodd" stroke="#917b01" stroke-width=".5"/><path d="m261.75213 146.32213s-3.32471-3.75416-.89701-6.37163c2.4277-2.61748 36.97353-1.77891 38.68151-.2607 1.70799 1.51821.66324 5.24084.66324 5.24084s-1.89776-.7591-4.17508-.94888c-2.27731-.18977-6.45239 3.79552-6.45239 3.79552s-14.42298 1.70799-15.18208 1.32844c-.75911-.37955-2.46709-5.12396-5.50351-5.12396s-7.13468 2.34037-7.13468 2.34037z" fill="#fed501" fill-rule="evenodd" stroke="#917b01" stroke-width=".5"/><path d="m260.95074 150.58908c1.04377 1.04377 7.91328-.8379 9.21281-.72443l19.65908 1.71658c4.52865.39543 7.44527-2.06177 8.96348-2.25155s.22126-5.69033-3.63929-5.76125c-3.8625-.07096-25.37738-.00566-29.63672.13612-4.26111.14184-5.60313 5.84076-4.55936 6.88453z" fill="#fed501" fill-rule="evenodd" stroke="#917b01" stroke-width=".5"/><path d="m260.63213 144.22765s1.20564-2.48221 2.76589-2.62405 33.04886-.49645 34.18359-.07092c1.13472.42552 2.62405 2.90773 2.62405 2.90773" fill="none" stroke="#917b01" stroke-width=".5"/><path d="m266.8252 127.20367s-.37955-.56933-1.32843-2.46709-1.32843-5.31373-1.32843-5.31373 4.17507-.94888 5.88306.18978c1.70798 1.13865 10.24791 10.81724 10.24791 10.81724s7.21149-8.7297 9.29903-10.43769c2.08753-1.70798 6.07283-.18978 6.07283-.18978s-.94888 5.88306-2.65686 7.59105c-1.70799 1.70798-13.85366 14.23321-13.85366 14.23321z" fill="#fed501" fill-rule="evenodd" stroke="#917b01" stroke-width=".5"/><path d="m278.21177 128.15255s0-11.57634-.18978-13.85365c-.18977-2.27732 2.27732-3.41597 2.27732-3.41597s1.89776 1.70798 1.70798 3.79552c-.18977 2.08754 0 14.99231 0 14.99231z" fill="#fed501" fill-rule="evenodd" stroke="#917b01" stroke-width=".5"/><path d="m258.14992 137.4193c.3546-.07092 3.54601-1.84393 5.46086-1.56025s32.55242-.07092 33.89991.07092c1.34748.14184 4.39706 1.27657 4.39706 1.27657" fill="none" stroke="#917b01" stroke-width=".5"/><path d="m260.98673 150.53955c1.27657-1.56024 2.12761-3.12049 4.1843-3.68785s29.57377-.92197 30.49573-.63828c.92197.28368 3.33326 2.62405 3.33326 2.62405" fill="none" stroke="#917b01" stroke-width=".5"/><path d="m264.90151 134.8033c-2.08754-1.5182-6.80601-4.75299-6.80601-4.75299s3.2262-1.5182 5.88306-.94888c2.65687.56933 15.94119 10.08407 15.94119 10.08407s12.52523-9.32496 15.37187-10.08407c2.84664-.7591 6.07283 1.51821 6.07283 1.51821s-5.17565 2.97597-6.88364 5.06351c-1.70798 2.08753-14.61276 13.01708-14.61276 13.01708s-12.879-12.37872-14.96654-13.89693z" fill="#fed501" fill-rule="evenodd" stroke="#917b01" stroke-width=".5"/><path d="m276.69356 137.26181s-3.60575-17.26963-3.79552-19.73672c-.18978-2.46709.56933-5.50351.56933-5.50351s3.22619 1.70799 3.9853 3.79553c.7591 2.08753 3.22619 14.99231 3.22619 14.99231s1.13866-13.47411 2.08754-15.18209 4.17507-3.41597 4.17507-3.41597.94888 3.60575.37955 5.69328c-.56933 2.08754-5.31373 19.92649-5.31373 19.92649z" fill="#fed501" fill-rule="evenodd" stroke="#917b01" stroke-width=".5"/><path d="m260.13569 129.47622s2.83681 1.13473 4.32614 2.48221c1.48932 1.34749 15.10602 13.2621 15.10602 13.2621s13.40394-12.76565 14.82235-13.33302c1.4184-.56736 6.59558-1.27656 6.59558-1.27656" fill="none" stroke="#917b01" stroke-width=".5"/><path d="m263.78879 127.773 15.75141 15.94119s12.90478-12.52522 14.80254-14.80253c1.89776-2.27732 3.9853-4.74441 3.9853-4.74441s-6.45239.75911-8.53993 2.65687-9.67858 10.81724-9.67858 10.81724-9.29903-9.48881-11.19679-11.76612-7.59104-1.51821-7.59104-1.51821 1.5182 2.08754 2.46709 3.41597z" fill="#fed501" fill-rule="evenodd" stroke="#917b01" stroke-width=".5"/><path d="m262.08669 124.19417 17.64329 16.48361 16.48557-16.0351" fill="none" stroke="#917b01" stroke-width=".5"/><path d="m280.67886 133.46628s-10.24792-11.76612-11.57635-14.23321-.94887-4.17507-.94887-4.17507 2.65686-.56933 4.17507 1.13866c1.51821 1.70798 8.16037 11.38656 8.16037 11.38656s5.69329-9.4888 7.02172-10.81723c1.32843-1.32844 4.36485-1.70799 4.36485-1.70799s-.18978 2.46709-1.70799 5.12396c-1.5182 2.65686-9.4888 13.28432-9.4888 13.28432z" fill="#fed501" fill-rule="evenodd" stroke="#917b01" stroke-width=".5"/><path d="m268.53319 115.43755 11.76612 14.61276 11.19679-14.80253" fill="none" stroke="#917b01" stroke-width=".5"/><path d="m280.20613 111.10786.21277 18.58112" fill="none" stroke="#917b01" stroke-width=".5"/><path d="m273.68147 112.38443 6.87927 18.79388 6.17006-18.36836" fill="none" stroke="#917b01" stroke-width=".5"/><path d="m264.88735 119.76014 15.0351 17.23364 15.10603-17.0918" fill="none" stroke="#917b01" stroke-width=".5"/><path d="m268.34341 172.56016h23.72202l-.75911-9.67858h-22.01403z" fill="#fed501" fill-rule="evenodd" stroke="#917b01" stroke-width=".5"/><path d="m279.52345 172.80853 12.12182-5.33937" fill="none" stroke="#917b01" stroke-width=".5"/><path d="m268.8447 168.1907 9.95721-5.19507" fill="none" stroke="#917b01" stroke-width=".5"/></g><use id="b" height="1052.3622" transform="translate(46.17837)" width="744.09448" xlink:href="#a"/><use height="1052.3622" transform="translate(45.60114 -.288615)" width="744.09448" xlink:href="#b"/><g fill-rule="evenodd"><path d="m240.94489 31.889742h166.53543v70.866142h-166.53543z" fill="#fdd401"/><path d="m290.0127 63.090797a1.8806508 2.6002042 0 1 0 -3.7613 0 1.8806508 2.6002042 0 1 0 3.7613 0z" fill="#0139ab" transform="matrix(.190454 .627399 -.956884 .290471 380.5249 -106.7163)"/><path d="m290.0127 63.090797a1.8806508 2.6002042 0 1 0 -3.7613 0 1.8806508 2.6002042 0 1 0 3.7613 0z" fill="#0139ab" transform="matrix(.634752 .164291 -.250572 .968098 214.3625 -12.82381)"/><path d="m290.0127 63.090797a1.8806508 2.6002042 0 1 0 -3.7613 0 1.8806508 2.6002042 0 1 0 3.7613 0z" fill="#0139ab" transform="matrix(-.286278 .58987 -.899646 -.436621 530.5297 -48.3192)"/><path d="m290.0127 63.090797a1.8806508 2.6002042 0 1 0 -3.7613 0 1.8806508 2.6002042 0 1 0 3.7613 0z" fill="#0139ab" transform="matrix(.04351559 .654224 -.997795 .06636658 425.1227 -106.2951)"/><path d="m290.0127 63.090797a1.8806508 2.6002042 0 1 0 -3.7613 0 1.8806508 2.6002042 0 1 0 3.7613 0z" fill="#0139ab" transform="matrix(-.129511 .642752 -.980297 -.197526 421.0461 -90.83162)"/><path d="m290.0127 63.090797a1.8806508 2.6002042 0 1 0 -3.7613 0 1.8806508 2.6002042 0 1 0 3.7613 0z" fill="#0139ab" transform="matrix(.154441 .637221 -.971863 .235545 335.2764 -111.6418)"/><path d="m290.0127 63.090797a1.8806508 2.6002042 0 1 0 -3.7613 0 1.8806508 2.6002042 0 1 0 3.7613 0z" fill="#0139ab" transform="matrix(.655466 .00457017 -.04809718 .999975 143.6484 32.14808)"/><path d="m290.0127 63.090797a1.8806508 2.6002042 0 1 0 -3.7613 0 1.8806508 2.6002042 0 1 0 3.7613 0z" fill="#0139ab" transform="matrix(.47723 .449616 -.685736 .72785 226.7851 -82.76514)"/><path d="m290.0127 63.090797a1.8806508 2.6002042 0 1 0 -3.7613 0 1.8806508 2.6002042 0 1 0 3.7613 0z" fill="#0139ab" transform="matrix(.622506 .205887 -.31401 .94942 106.401 -77.95482)"/><path d="m290.0127 63.090797a1.8806508 2.6002042 0 1 0 -3.7613 0 1.8806508 2.6002042 0 1 0 3.7613 0z" fill="#0139ab" transform="matrix(.597851 -.269217 .410598 .911816 60.83791 58.42297)"/><path d="m290.0127 63.090797a1.8806508 2.6002042 0 1 0 -3.7613 0 1.8806508 2.6002042 0 1 0 3.7613 0z" fill="#0139ab" transform="matrix(-.00651267 -.655638 .999951 -.00993285 189.0228 241.712)"/><path d="m290.0127 63.090797a1.8806508 2.6002042 0 1 0 -3.7613 0 1.8806508 2.6002042 0 1 0 3.7613 0z" fill="#0139ab" transform="matrix(.233332 -.612747 .934536 .355868 125.1123 194.6191)"/><path d="m290.0127 63.090797a1.8806508 2.6002042 0 1 0 -3.7613 0 1.8806508 2.6002042 0 1 0 3.7613 0z" fill="#0139ab" transform="matrix(-.01933936 -.655385 .999565 -.02949557 195.844 272.9228)"/><path d="m290.0127 63.090797a1.8806508 2.6002042 0 1 0 -3.7613 0 1.8806508 2.6002042 0 1 0 3.7613 0z" fill="#0139ab" transform="matrix(-.370447 -.540992 .825097 -.564991 305.9849 281.2329)"/><path d="m290.0127 63.090797a1.8806508 2.6002042 0 1 0 -3.7613 0 1.8806508 2.6002042 0 1 0 3.7613 0z" fill="#0139ab" transform="matrix(.616337 .223678 -.341145 .940011 100.0521 -28.80486)"/><path d="m290.0127 63.090797a1.8806508 2.6002042 0 1 0 -3.7613 0 1.8806508 2.6002042 0 1 0 3.7613 0z" fill="#0139ab" transform="matrix(.65567 0 0 1 74.25383 34.10498)"/><path d="m345.47193 37.303878s-13.56489-.865844-15.5852 0c-2.0203.865845-2.30891 3.751993-4.32922 3.751993-2.0203 0-8.94706-.57723-10.67875-.288615s-5.48368 2.308918-5.48368 5.195067c0 2.886148.72114 7.807581 11.25598 8.081214 11.11167.288615 30.01594-6.926755 30.01594-6.926755l.28862 2.886148s4.32922-4.906452 6.63814-5.195067c2.30891-.288615 4.61783 1.15446 3.75199 2.308919-.86585 1.154459-1.73169 2.020303-1.73169 2.020303s5.19507-1.443074 5.19507-3.174762c0-1.731689-1.15446-2.020304-1.15446-2.020304s3.17476.288615 4.32922 0 2.30892 1.443074 1.73169 2.597533-1.73169 2.886148-1.73169 2.886148 5.19507-1.443074 4.61784-2.886148-.57723-2.308918-.57723-2.308918 4.61783-.865845 5.48368.577229c.86584 1.443074-2.02031 8.658445-2.02031 8.658445s1.73169-4.617837 5.48369-5.483682c3.75199-.865844 5.77229-1.731689 8.08121-.288615s10.10151 4.617837 9.8129 8.658445c0 2.020304-3.46337 3.751992-8.94705 4.040607-5.48369.288615-23.3778-4.040607-36.07686-4.040607-12.69905 0-18.47134 2.308918-26.55256 2.886148-8.08121.57723-51.08482 0-51.08482 0s-10.67875-3.751993-12.69905-7.503985c-2.02031-3.751993 2.59753-7.7926 2.59753-7.7926l-1.73169-1.443074-2.0203 1.443074s1.73169-4.329222-1.73169-4.329222-3.17476 4.329222-3.17476 4.329222-2.30892-4.329222-3.752-4.617837c-1.44307-.288615-2.30892 4.617837-2.30892 4.617837s4.04061 1.443074 3.752 3.463378c-.28862 2.020303-5.19507 2.020303-5.19507 2.020303s-.28861 3.751993.86584 4.617837c1.15446.865845 3.46338-2.308918 4.61784-2.020303 1.15446.288614.86585 9.524289.86585 9.524289l1.73168-2.020304.28862 8.081215 1.73169-4.040608.28861 8.94706 6.34953-4.329223-2.88615 9.524289 4.04061-4.040607v5.772296l21.93472-4.617837-2.30891 4.040607s-5.7723 4.906452-11.83321 5.483682-10.67875 1.154459-13.5649.865844c-2.88615-.288614-5.77229-5.483681-6.92675-5.195066s.86584 3.174763-.28862 4.617837-5.77229 2.597533-4.32922 3.463378c1.44307.865844 6.34953.577229 6.34953 2.020303s-3.17477 3.463378-.86585 4.617837c2.30892 1.15446 5.19507-3.463378 5.7723-2.308918.57723 1.154459-.57723 3.751992 1.73169 3.751992 2.30891 0 2.30891-3.174763 2.30891-3.174763l11.25598 3.463378-2.59753-4.329222s3.75199 2.308918 5.48368 2.886148 4.32922.57723 4.32922.57723l-3.46337-4.617837 7.50398 4.040607-1.73169-4.617837 6.34953 3.751993-1.15446-4.040608s2.59753 2.308919 4.61784 2.308919c2.0203 0 3.17476-1.731689 3.17476-1.731689l-2.02031-2.597533s2.30892 1.443074 5.19507 1.731688c2.88615.288615 7.50399-1.731688 7.50399-1.731688l-5.48369-1.731689 5.19507-1.731689-2.59753-1.731689 3.75199-6.349526s1.44307.288615 6.63814 0 21.64611-11.255978 28.57287-10.967363c6.92675.288615 19.62581 13.564896 25.3981 13.276281 5.7723-.288614 16.45105-1.154459 16.45105-1.154459s-1.73169 3.463378-2.59754 5.195067c-.86584 1.731689-.86584 4.040607-.86584 4.040607l-5.48368-.865844s.28861-1.154459-2.02031-1.154459-1.15446 4.329222-1.15446 4.329222-1.73168 2.886148-.28861 3.174763 3.46338-2.020304 4.61784-.865845c1.15446 1.15446-.57723 3.463378 1.15446 3.751993 1.73168.288615.86584-4.329222 3.17476-4.040608 2.30892.288615 3.46338 3.174763 4.90645 2.886149 1.44307-.288615 2.0203-2.886149 2.0203-2.886149s-2.0203-.865844-2.0203-2.308918 2.30892-5.195067 3.75199-5.195067c1.44308 0 1.15446 2.886148 1.15446 2.886148l1.44308-3.174763 1.73169.57723-2.30892-4.329222 4.90645.57723-2.88615-3.174763 3.17476-.288615s-2.30892-1.15446-2.30892-2.886148c0-1.731689.86585-4.329223.86585-4.329223s-6.34953 2.308919-12.98767.57723-15.00797-9.812904-15.00797-9.812904 15.29659 2.597534 19.62581 2.308919 9.8129-.57723 10.67875-4.040608c.86584-3.463377-5.19507-12.987666-5.19507-12.987666v3.751992s-5.7723-6.060911-25.10949-7.503985-33.76793 11.544593-50.50759 10.101519c-15.00797-1.731689-8.36983-10.678749-.86585-9.812904 4.61784.57723 11.83321 3.174763 15.29659 3.174763s9.23567-3.751993 10.39013-8.081215z" fill="#d4170f"/><path d="m357.30514 65.876745c-2.0203.288615-24.24365.865844-25.10949 9.235674-.86585 8.369829 8.94706 7.21537 8.94706 7.21537l-.28861 2.886148s-6.34953 1.15446-10.10152 1.15446-3.46338-4.329223-5.48368-4.906452c-2.02031-.57723-2.59754 3.174763-2.59754 3.174763l-3.17476.288615.28862 3.174763 2.0203 1.154459.28861 2.308918 1.73169 2.597534 2.59754-1.443074.86584 3.751992s.86584-.865844 2.0203-1.154459 2.02031 1.443074 2.02031 1.443074-.28862-3.751993 3.17476-4.040607c3.46338-.288615 5.7723 3.751992 5.7723 3.751992v-4.040607l3.17476 3.174763.57723-4.329223 3.75199 3.751993.86585-3.751993 2.0203 1.731689v-3.751992l6.34953 3.174763.86584-3.751993 5.19507 1.443074-1.73169-1.731689h5.48368s-2.0203-4.617837-3.75199-6.349526c-1.73169-1.731688-10.96737-4.617837-11.25598-7.21537-.28862-2.597533 5.48368-8.947059 5.48368-8.947059z" fill="#d4170f"/><path d="m281.68806 52.023234c-1.15446 0-12.41044 10.678748-13.85351 12.699052-1.44308 2.020303-.57723 5.195066-.57723 5.195066l4.90645-4.906452s-1.44307 2.886148-1.44307 5.195067.86584 4.906452.86584 4.906452l2.59753-6.349526v11.255978l3.752-5.483682-2.30892 10.967363 4.90645-8.081215s-2.59753 3.751993-1.44307 6.349526c1.15446 2.597534 2.0203 3.174763 2.0203 3.174763l2.30892-9.524289s-.28862 5.772297.86584 7.7926c1.15446 2.020304 3.17477 3.174763 3.17477 3.174763s.28861-3.751992.57723-6.63814c.28861-2.886149-.57723-5.195067-.57723-5.195067s2.59753 3.463378 2.30891 5.483681c-.28861 2.020304-1.15445 4.617837-1.15445 4.617837s3.17476-3.174763 3.75199-5.772296-.57723-4.906452-.57723-4.906452.57723 5.483682 1.73169 6.926756 3.17476 3.174763 3.17476 3.174763v-9.812904s.28861 5.483682 1.73169 6.926756c1.44307 1.443074 4.32922 1.443074 4.32922 1.443074s-2.30892-4.040608-2.59753-7.503985c-.28862-3.463378.57723-4.906452.57723-4.906452s.86584 4.617837 1.15446 6.349526c.28861 1.731689.86584 3.751992.86584 3.751992s.57723-4.906452.86585-6.926755c.28861-2.020304-.28862-3.463378-.28862-3.463378s2.59753 4.040607 2.0203 5.195067c-.57723 1.154459 0 2.308918 0 2.308918s1.44308-5.195067 1.44308-7.503985c0-2.308919-1.44308-4.329222-1.44308-4.329222l3.752 5.195066s1.15446-4.906452-.57723-9.524289-10.67875-9.812903-10.67875-9.812903z" fill="#d4170f" stroke="#fed501" stroke-width=".875"/><path d="m277.64745 45.673708s-3.17476 2.597533-3.17476 5.772296 2.0203 4.040607 2.0203 4.040607l-1.15446 5.772297 2.02031-1.15446.28861 5.772297 2.02031-2.886148.86584 5.483681 2.0203-2.020304v5.483682l2.02031-2.597533 1.15446 2.886148 1.73169-3.174763 1.73168 2.886148 1.44308-2.886148 3.46338.865844-.57723-1.731689 2.30892.288615-.86585-4.617837 2.30892 3.174763.28861-3.751993 2.59754 1.731689s1.73169-7.503985 1.73169-12.121822-1.44308-7.21537-1.44308-7.21537l2.88615-4.329223-4.90645 1.443075-1.44308-4.040608-2.88614 2.308919-.86585-1.731689-1.15446 1.443074-1.44307-3.463378-2.0203 3.463378-3.17477-2.308919-.57723 3.174763-2.59753-1.154459-.28862 2.886148s-4.32922-3.174763-5.77229-3.174763c-1.44308 0 1.44307 5.483682 1.44307 5.483682z" fill="#d4170f" stroke="#fed501" stroke-width=".875"/></g><path d="m279.66776 54.332152c2.0203-.577229.86584 5.195067 3.17476 5.772296 2.30892.57723 5.48368-2.020303 5.48368-2.020303s.86584 2.886148 3.46338 2.597533c2.59753-.288615 4.04061-6.060911 4.04061-6.060911" fill="none" stroke="#fed501" stroke-width=".75"/><path d="m284.28559 64.722286s2.93147-3.720332 3.05048-6.183098c.11587-2.39775-1.5442-2.651957-1.52946-3.667727.01475-1.015769.67255-1.374055 2.08561-1.424113 1.4804-.052443 2.49795.604947 2.57015 1.615822.06742.943791-2.13617 1.000671-2.13617 3.598204 0 2.597534 3.17476 6.060912 3.17476 6.060912s-1.81806-.288615-2.39529 0c-.57723.288614-1.06808 2.308918-1.06808 2.308918s.13483-1.799103-1.30825-2.087718c-1.44307-.288614-2.44375-.2212-2.44375-.2212z" fill="#fed501" fill-rule="evenodd"/><path d="m290.0127 63.090797a1.8806508 2.6002042 0 1 0 -3.7613 0 1.8806508 2.6002042 0 1 0 3.7613 0z" fill="#0139ab" fill-rule="evenodd" transform="matrix(.65567 0 0 1 98.93506 -.370037)"/><path d="m287.42255 46.869718c-1.43671 1.209861-2.5762.828036-4.58003-.041551-.11342.983012.86584 4.329222 2.59753 4.040607 1.73169-.288614 1.9825-3.999056 1.9825-3.999056zm-1.29053 2.045485c0 .532188-.43192.964108-.96411.964108s-.96411-.43192-.96411-.964108c0-.532187.43192-.964108.96411-.964108s.96411.431921.96411.964108z" fill="#fed501" fill-rule="evenodd"/><path d="m290.62412 47.095924c1.43671 1.209861 2.50058.147489 4.50441-.722098.11342.983012-.82803 4.820728-2.55972 4.532113-1.73169-.288614-1.94469-3.356317-1.94469-3.810015zm1.25272 1.856444c0 .532188.43192.964108.96411.964108s.96411-.43192.96411-.964108c0-.532187-.43192-.964108-.96411-.964108s-.96411.431921-.96411.964108z" fill="#fed501" fill-rule="evenodd"/><path d="m306.16227 80.51352c.21388-.427751 2.45957-5.560754 2.45957-5.560754s.10693 3.101189.53468 2.566501c.42775-.534687 1.49713-3.849752 1.49713-3.849752s1.49713 2.138751 1.92488 1.390188 1.06937-1.711001 1.06937-1.711001.96244 2.780377 1.17631 2.031814c.21388-.748563 1.06938-2.459564 1.06938-2.459564s1.39019 2.780377 1.39019 2.138751c0-.641625.42775-2.673439.42775-2.673439l1.06938 1.497126 1.81793-2.459564s-.21387 2.887314.21388 2.138751 1.17631-2.352626 1.17631-2.352626 1.17632 1.817938 1.711 1.069375c.53469-.748563.8555-1.390188.8555-1.390188h1.39019l.96244-1.604064 1.17631 1.283251.8555-1.176313" fill="none" stroke="#fed501" stroke-width=".75"/><path d="m347.44017 78.802518c4.49138-.106937 4.70526-1.711001 4.70526-1.711001" fill="none" stroke="#fed501" stroke-width=".75"/><path d="m351.18299 80.406582s2.03181-.320813 2.78038-1.390189" fill="none" stroke="#fed501" stroke-width=".75"/><path d="m353.96337 81.582895c2.78037-.106937 2.67344-1.497126 2.67344-1.497126" fill="none" stroke="#fed501" stroke-width=".75"/><path d="m357.06456 82.438396c2.67344.641625 2.24569-1.497126 2.24569-1.497126" fill="none" stroke="#fed501" stroke-width=".75"/><path d="m358.98943 84.684085c1.39019-.106938 1.60407-1.817939 1.60407-1.817939" fill="none" stroke="#fed501" stroke-width=".75"/><path d="m372.5705 66.611635c3.52894-.641625 2.78038-.106938 2.78038-.106938" fill="none" stroke="#fed501" stroke-width=".75"/><path d="m374.49538 68.429574c1.711.106937 2.78038-1.283251 2.78038-1.283251" fill="none" stroke="#fed501" stroke-width=".75"/><path d="m376.52719 69.712825c1.81794-.213876 2.03182-1.283251 2.03182-1.283251" fill="none" stroke="#fed501" stroke-width=".75"/><path d="m378.98676 70.7822c1.711-.213875 1.92487-1.176313 1.92487-1.176313" fill="none" stroke="#fed501" stroke-width=".75"/><path d="m381.01857 71.744639c1.81794-.748563 1.49713-1.283251 1.49713-1.283251" fill="none" stroke="#fed501" stroke-width=".75"/><path d="m344.15711 38.050718c-6.34678-.807105-7.33732 2.971616-7.33732 2.971616s3.77872-1.504152 4.1089-1.137285c.33018.366866-.73373 2.494689-.29349 2.274569.44024-.220119 3.0083-2.017763 3.52191-4.1089z" fill="#fed501" fill-rule="evenodd"/><path d="m237.40157 28.346435h173.62205v177.165355c0 17.71653-21.25984 17.71653-85.03937 38.97638-63.77953-21.25985-88.24206-22.35232-88.58268-38.97638zm7.08662 7.086614h159.44882v170.078741c0 7.08661-14.17323 10.62991-77.95276 31.88976-63.77953-21.25985-81.49606-24.80315-81.49606-31.88976z" fill="#feffff" fill-rule="evenodd"/></g></svg>